<?xml version="1.0" standalone="no"?>
<!DOCTYPE svg PUBLIC "-//W3C//DTD SVG 1.1//EN" "http://www.w3.org/Graphics/SVG/1.1/DTD/svg11.dtd" >
<svg xmlns="http://www.w3.org/2000/svg">
<metadata></metadata>
<defs>
<font id="alpin_gothic_no_3_cgregular" horiz-adv-x="796" >
<font-face units-per-em="2048" ascent="1638" descent="-410" />
<missing-glyph horiz-adv-x="454" />
<glyph horiz-adv-x="2048" />
<glyph horiz-adv-x="2048" />
<glyph unicode="&#xd;" horiz-adv-x="2048" />
<glyph unicode=" " horiz-adv-x="454" d="M0 0z" />
<glyph unicode="!" horiz-adv-x="569" d="M150 1491h270l-62 -1063h-147zM174 0v229h221v-229h-221z" />
<glyph unicode="&#x22;" horiz-adv-x="720" d="M72 1491h241l-77 -518h-107zM430 1491h242l-78 -518h-107z" />
<glyph unicode="#" horiz-adv-x="909" d="M8 459l23 151h143l35 242h-178l22 154h178l76 532h164l-78 -532h211l76 532h166l-76 -532h139l-22 -154h-139l-35 -242h172l-23 -151h-172l-90 -617h-166l90 617h-211l-90 -617h-162l91 617h-144zM336 610h211l35 242h-211z" />
<glyph unicode="$" horiz-adv-x="909" d="M119 502v53h200v-53q0 -66 34.5 -114t111.5 -48q58 0 93.5 35.5t35.5 97.5q0 45 -25 81t-65 61t-88.5 49t-97.5 53.5t-89 66.5t-65 96t-25 134q0 221 219 291v243h195v-245q134 -38 182.5 -123t48.5 -238h-194q-1 5 -2.5 27t-3.5 35t-6.5 34.5t-13 35t-21 28t-32.5 21.5 t-46 7q-52 0 -88.5 -33.5t-36.5 -82.5q0 -43 25 -77.5t65.5 -59t89 -48.5t97.5 -54t89.5 -68t65.5 -98t25 -136q0 -36 -5.5 -68t-12.5 -55.5t-23 -46.5t-26 -37t-33.5 -30.5t-33.5 -23.5t-38 -20t-35.5 -16t-36.5 -14v-254h-195v254q-239 66 -239 340z" />
<glyph unicode="%" horiz-adv-x="1517" d="M121 936v291q0 17 0.5 30.5t5.5 44t14.5 54.5t29 53.5t46 49t69.5 33t97 13.5q53 0 95.5 -12.5t69.5 -31.5t46.5 -47t29 -51.5t14.5 -54t6 -46.5t1 -35v-291q0 -26 -1.5 -47.5t-8 -50.5t-17.5 -52t-30.5 -46.5t-46.5 -39.5t-67.5 -26t-90.5 -10q-262 0 -262 272zM276 936 q0 -139 107 -139q30 0 51.5 11.5t31 25t15 37t6 34.5t0.5 31v291q0 145 -104 145q-36 0 -60 -18t-33 -47t-11.5 -46.5t-2.5 -33.5v-291zM371 -158l585 1698h154l-586 -1698h-153zM879 252v291q0 17 0.5 30.5t5.5 44.5t14.5 55t29 53.5t46 49.5t69.5 33.5t97 13.5 q53 0 95.5 -13t69.5 -31.5t46.5 -47t29 -52.5t14.5 -54.5t6 -46.5t1 -35v-291q0 -26 -1.5 -47.5t-8 -50.5t-17.5 -52t-30.5 -46.5t-46.5 -39.5t-67.5 -26t-90.5 -10q-262 0 -262 272zM1034 252q0 -139 107 -139q30 0 51.5 11.5t31 25t15 37t6 34.5t0.5 31v291 q0 145 -104 145q-36 0 -60 -18t-33 -47t-11.5 -46.5t-2.5 -33.5v-291z" />
<glyph unicode="&#x26;" horiz-adv-x="1062" d="M94 350q0 65 16 128t37.5 107t54.5 89.5t54.5 69t50.5 53.5l10 10q-5 8 -26 43t-29.5 51.5t-27 51t-27.5 59t-20.5 57t-16 64.5t-4.5 63q0 143 87.5 228t229.5 85q59 0 113 -17.5t100.5 -52.5t74.5 -98t28 -145q0 -195 -236 -414l174 -284q27 86 27 260h203 q0 -138 -30 -272t-71 -193l183 -293h-230l-74 129q-43 -55 -73 -79q-89 -70 -230 -70q-164 0 -256 103.5t-92 266.5zM303 365q0 -82 38 -137.5t118 -55.5q67 0 116 42t66 79l-221 354q-1 -1 -11 -12.5t-13.5 -16t-14 -19t-16 -23t-15.5 -25.5t-15 -30.5t-12 -32.5t-11 -37.5 t-6.5 -40.5t-2.5 -45zM365 1196q0 -43 17 -93.5t30.5 -75t44.5 -77.5l11 10q12 11 16.5 15.5l17.5 17.5t20 21.5t19 24t19 27.5t16 29t14 32t8.5 33t3.5 36q0 66 -32 101.5t-89 35.5q-49 0 -82.5 -36.5t-33.5 -100.5z" />
<glyph unicode="'" horiz-adv-x="417" d="M100 1491h242l-78 -518h-106z" />
<glyph unicode="(" horiz-adv-x="454" d="M27 627q0 235 66 482.5t134 381.5h187q-52 -106 -118.5 -377.5t-66.5 -486.5q0 -210 63 -472.5t122 -390.5h-187q-59 102 -129.5 364t-70.5 499z" />
<glyph unicode=")" horiz-adv-x="454" d="M27 -236q55 107 119.5 367t64.5 496q0 164 -39 361.5t-77.5 317.5t-67.5 185h186q24 -48 53.5 -127t65 -195.5t59 -261.5t23.5 -280q0 -174 -41 -370t-84 -316t-76 -177h-186z" />
<glyph unicode="*" horiz-adv-x="909" d="M129 1204l49 137l230 -96l-29 246h156l-29 -246l229 96l49 -137l-247 -53l172 -190l-123 -84l-129 229l-127 -229l-125 84l172 190z" />
<glyph unicode="+" horiz-adv-x="1517" d="M311 537v147h367v385h160v-385h366v-147h-366v-396h-160v396h-367z" />
<glyph unicode="," horiz-adv-x="454" d="M129 0v246h242v-244l-123 -274h-111l84 272h-92z" />
<glyph unicode="-" horiz-adv-x="454" d="M37 508v182h375v-182h-375z" />
<glyph unicode="." horiz-adv-x="454" d="M106 0v240h238v-240h-238z" />
<glyph unicode="/" horiz-adv-x="454" d="M39 -158l223 1696h150l-226 -1696h-147z" />
<glyph unicode="0" horiz-adv-x="909" d="M84 477v582q0 28 0.5 49.5t4.5 58t10.5 66t20 66t31.5 65t47 57t64.5 47t84.5 30t108 11.5q60 0 110.5 -12.5t86 -31.5t64 -49t46.5 -58t31 -67t19 -66.5t9 -65.5t3.5 -55t0.5 -45v-582q0 -40 -0.5 -62.5t-3.5 -68t-9 -74.5t-19 -71.5t-31 -70t-46.5 -59t-64.5 -49.5 t-86 -30t-110 -12q-77 0 -137.5 19.5t-98.5 47t-65.5 75t-40.5 85t-20 96.5t-8 90t-1 84zM297 477q0 -45 0.5 -68t3.5 -62t8.5 -59.5t17 -47.5t28 -40.5t42 -23.5t58.5 -10q26 0 47 6t36.5 14.5t27.5 26t19.5 31t13 39.5t8 42.5t4 49t1.5 49.5v53v582q0 36 -0.5 53.5t-3 51 t-8.5 51t-17 41.5t-27.5 36.5t-42 21.5t-58.5 9q-32 0 -57 -9t-41.5 -22t-28 -35.5t-17.5 -42.5t-9.5 -50.5t-4 -51t-0.5 -53.5v-582z" />
<glyph unicode="1" horiz-adv-x="909" d="M137 1110v162q67 0 116.5 10.5t80.5 27.5t52.5 46.5t32 59.5t19.5 75h191v-1491h-217v1110h-275z" />
<glyph unicode="2" horiz-adv-x="909" d="M78 0v195q11 14 94 116.5t120 150t98 133.5t102 155q66 110 95 184.5t29 173.5q0 111 -37.5 164t-119.5 53q-38 0 -66.5 -12.5t-45.5 -38.5t-27.5 -51t-14.5 -66.5t-5 -68t-1 -70.5h-215q0 78 8 141.5t32.5 131t65.5 113.5t111.5 75.5t165.5 29.5q172 0 267 -105.5 t95 -295.5q0 -237 -172 -477q-182 -251 -348 -443h520l2 -188h-753z" />
<glyph unicode="3" horiz-adv-x="909" d="M66 369v67h215v-67q0 -26 4 -51.5t15.5 -53.5t29 -49t46.5 -35t66 -14q42 0 73 10t49.5 31.5t30 43t16.5 58.5t6 62.5t1 68.5q0 128 -40 184t-156 56h-92v190h63q56 0 95 12t61.5 31.5t35 55t16 73t3.5 95.5q0 79 -36.5 132.5t-108.5 53.5q-33 0 -58.5 -8t-42 -19.5 t-28 -32.5t-17 -37.5t-8.5 -44.5t-3.5 -44t-0.5 -45h-213q0 417 371 417q174 0 264 -98.5t90 -273.5q0 -100 -12.5 -164.5t-42.5 -102.5t-66.5 -57t-97.5 -33q105 -15 172.5 -100t67.5 -240q0 -111 -19 -192t-62.5 -143.5t-121 -93.5t-189.5 -31q-94 0 -164 26t-108.5 64 t-62.5 94t-31.5 102t-9.5 103z" />
<glyph unicode="4" horiz-adv-x="909" d="M35 348v191l393 952h289v-952h176v-191h-176v-348h-213v348h-469zM233 539h271v710z" />
<glyph unicode="5" horiz-adv-x="909" d="M90 377l2 59h213v-59q9 -211 150 -211q46 0 78.5 16.5t49.5 40t26.5 63.5t11.5 71t2 79v178q0 220 -156 220q-76 0 -119 -52t-43 -110h-203v819h697v-188h-482v-371q34 31 88 58.5t119 27.5q50 0 92 -9.5t72 -24.5t53.5 -39.5t39 -47t26 -56.5t16 -58t8 -61t3 -56 t0.5 -52v-178q0 -29 -0.5 -47t-4 -57t-9.5 -66.5t-19 -67t-31.5 -67.5t-47.5 -58.5t-65.5 -49t-87.5 -31t-112 -12.5q-180 0 -273.5 107t-93.5 290z" />
<glyph unicode="6" horiz-adv-x="909" d="M96 381v711q0 23 1 42.5t8 65t19.5 82t39.5 81t64 74.5t96 51t133 21q95 0 167 -29t113 -79t60.5 -110t19.5 -130v-71h-211v57q0 176 -141 176q-38 0 -66.5 -11t-45 -32.5t-26.5 -42t-14 -52t-5 -48.5t-1 -45v-246q89 56 127 71q65 25 139 25q136 0 199.5 -98.5 t63.5 -265.5v-197q0 -22 -1 -40.5t-8 -62.5t-19.5 -79t-40 -78t-64.5 -72t-97 -49t-135 -20q-77 0 -138.5 19.5t-100 47.5t-66.5 70.5t-41 77t-20 79t-8 64t-1 43.5zM307 381q0 -215 156 -215q34 0 60 8t43 19t29 31t17.5 35.5t8.5 41.5t3.5 40.5t0.5 39.5v197q0 17 -1 31.5 t-8.5 42.5t-20.5 47.5t-41 35t-67 15.5q-44 0 -94 -28.5t-86 -62.5v-278z" />
<glyph unicode="7" horiz-adv-x="909" d="M94 1303v188h727v-188l-364 -1303h-224l369 1303h-508z" />
<glyph unicode="8" horiz-adv-x="909" d="M78 408q0 106 17.5 177.5t53.5 111t76 57.5t99 26q-111 23 -168.5 93.5t-57.5 205.5q0 215 82 322.5t279 107.5q194 0 278 -104t84 -326q0 -136 -56.5 -205.5t-168.5 -93.5q47 -7 80.5 -18t66.5 -36t53.5 -64t33 -103t12.5 -151q0 -208 -91.5 -318t-291.5 -110 q-205 1 -293 109.5t-88 318.5zM293 379q2 -46 8.5 -79.5t23.5 -65t50.5 -48t83.5 -16.5t84 16t51 47t24 65t9 81v98q0 207 -168 207q-166 0 -166 -207v-98zM309 1079q0 -202 150 -202q76 0 113.5 53t37.5 149q0 56 -5 94.5t-19.5 76.5t-46.5 57.5t-80 19.5q-40 0 -68 -14 t-44 -35t-24.5 -56t-11 -66.5t-2.5 -76.5z" />
<glyph unicode="9" horiz-adv-x="909" d="M78 317v115h211v-86q0 -84 40 -133t124 -49q87 0 120 58t33 177v279l-20 -14q-21 -14 -33.5 -21.5t-40 -21.5t-50.5 -22t-55.5 -14.5t-64.5 -6.5q-65 0 -113.5 22.5t-77 58t-45.5 88t-22.5 102.5t-5.5 112v145q0 61 9.5 114.5t36 108t67 93t107.5 63t153 24.5 q70 0 125.5 -15t93.5 -39.5t66 -65.5t43.5 -83.5t24.5 -103t12 -114.5t3 -127v-562q0 -66 -10 -123t-36.5 -113t-68 -95t-110.5 -63.5t-158 -24.5q-78 0 -140.5 19.5t-102.5 51.5t-66.5 76t-37.5 91t-11 99zM291 961q0 -33 1 -51t7.5 -48t18.5 -47t37 -30t61 -13q32 0 70 15 t58 28t62 41v231q0 125 -32 181.5t-123 56.5q-76 0 -118 -56t-42 -163v-145z" />
<glyph unicode=":" horiz-adv-x="454" d="M106 0v240h238v-240h-238zM106 866v242h238v-242h-238z" />
<glyph unicode=";" horiz-adv-x="454" d="M100 0v246h242v-244l-123 -274h-110l84 272h-93zM106 866v242h238v-242h-238z" />
<glyph unicode="&#x3c;" horiz-adv-x="1517" d="M233 528v146l1043 430v-160l-850 -342l850 -336v-166z" />
<glyph unicode="=" horiz-adv-x="1517" d="M303 385v152h901v-152h-901zM303 684v152h901v-152h-901z" />
<glyph unicode="&#x3e;" horiz-adv-x="1517" d="M252 90v166l850 336l-850 342v160l1042 -430v-146z" />
<glyph unicode="?" horiz-adv-x="757" d="M43 1157q0 48 8 92.5t31.5 93.5t60.5 84.5t101 58.5t147 23q143 0 231.5 -78.5t88.5 -222.5q0 -62 -25.5 -123.5t-62 -114t-73 -107.5t-62 -126t-25.5 -147v-160h-178v160q0 93 22 175.5t53.5 140t62.5 107.5t53 100t22 95q0 59 -34.5 91t-84.5 32q-127 0 -127 -174h-209 zM262 0v229h223v-229h-223z" />
<glyph unicode="@" horiz-adv-x="1517" d="M254 559q0 107 6 194t21.5 173t41.5 152t66.5 123t95.5 94t131 58t170 21q76 0 140.5 -13.5t110 -34t82.5 -52.5t59.5 -62t39.5 -71t24.5 -70t12 -68t5 -56.5t0.5 -43.5v-700h-201v108q-43 -43 -110 -77.5t-120 -34.5q-239 0 -239 327q0 69 16.5 124t43 91.5t66 63.5 t78.5 42t88.5 24.5t88 14t84.5 7.5h2h2q0 305 -273 305q-65 0 -115.5 -19t-85 -49t-59 -80t-37.5 -99t-20.5 -121t-9.5 -130t-2 -141q0 -73 2.5 -130t9 -119.5t19.5 -110t32.5 -94.5t49 -79.5t68.5 -58.5t92 -38.5t118 -12.5q119 0 211 33v-180q-44 -14 -82 -20.5t-61 -7.5 t-68 -1q-111 0 -195.5 19.5t-162.5 73t-127.5 143.5t-79 236.5t-29.5 346.5zM797 526q0 -66 24 -100.5t84 -34.5q16 0 31.5 3.5t34.5 13l28 14t33 20t27 17.5v274q-112 -14 -157 -34q-105 -45 -105 -173z" />
<glyph unicode="A" horiz-adv-x="948" d="M20 0l306 1491h305l305 -1491h-215l-66 340h-354l-65 -340h-216zM342 543h272l-135 700z" />
<glyph unicode="B" horiz-adv-x="985" d="M119 0v1491h301q64 0 110 -2.5t99.5 -12.5t90.5 -27t73 -47.5t57.5 -73.5t35 -105t13.5 -142q0 -155 -55 -225.5t-154 -89.5q115 -8 174.5 -86t59.5 -244q0 -105 -22 -181.5t-61.5 -125t-103.5 -77.5t-139.5 -40.5t-177.5 -11.5h-301zM336 199h84h17q65 0 107 7 q48 8 86 32.5t55 72.5t17 125q0 62 -14.5 105.5t-37 68t-62 38.5t-76 17.5t-92.5 4.5h-84v-471zM336 868h84h22q38 0 64 2q34 4 69.5 16t56.5 35t34.5 63t13.5 97q0 56 -12.5 94.5t-32 61t-55 35t-70.5 16t-90 4.5h-84v-424z" />
<glyph unicode="C" horiz-adv-x="909" d="M102 399v723q0 72 16 131t41 98t60 69t69 46.5t72.5 26.5t66.5 13t54 3q169 0 264 -94.5t95 -292.5v-139h-219v139q0 95 -33 142t-107 47q-47 0 -80.5 -25t-48 -60.5t-20.5 -61.5t-6 -42v-723q0 -107 34 -164t125 -57q136 0 136 221v117h219v-117q0 -61 -6.5 -112 t-28.5 -110.5t-58.5 -100.5t-104 -68.5t-157.5 -27.5q-94 0 -164.5 25t-111.5 64t-66 96.5t-33 112t-8 121.5z" />
<glyph unicode="D" horiz-adv-x="985" d="M115 0v1491h323q131 0 214.5 -24.5t138 -85t76.5 -157t22 -247.5v-459q0 -78 -4 -135t-16 -114t-33 -96.5t-54.5 -74t-81 -55t-113 -32t-149.5 -11.5h-323zM336 199h102q34 0 61.5 2.5t49.5 9.5t38.5 13.5t29 22t21 26.5t14 35.5t8.5 40t4.5 49.5t1.5 55.5v64.5v459 q0 83 -2 120t-13 84.5t-35 65.5t-67 31.5t-111 13.5h-102v-1093z" />
<glyph unicode="E" horiz-adv-x="833" d="M111 0v1491h673v-199h-454v-424h401v-198h-401v-471h467v-199h-686z" />
<glyph unicode="F" d="M109 0v1491h675v-199h-456v-424h405v-198h-405v-670h-219z" />
<glyph unicode="G" horiz-adv-x="948" d="M98 406v704q0 179 100.5 290t282.5 111q187 0 283 -106.5t96 -294.5v-74h-221v74q0 199 -154 199q-40 0 -71 -14t-49 -34.5t-29.5 -48.5t-15 -52.5t-3.5 -49.5v-704q0 -36 2.5 -62.5t11.5 -59.5t25 -54t46 -35.5t71 -14.5q33 0 60 8.5t38.5 16.5t35 29t32.5 28v348h-186 v199h407v-809h-201v123l-14 -17q-14 -16 -17 -19t-17.5 -18.5t-21 -20t-22 -17t-26.5 -17.5t-29 -13.5t-34.5 -11.5t-37.5 -6t-43 -3q-299 0 -299 426z" />
<glyph unicode="H" horiz-adv-x="985" d="M111 0v1491h223v-623h325v623h226v-1491h-226v670h-325v-670h-223z" />
<glyph unicode="I" horiz-adv-x="454" d="M121 0v1491h223v-1491h-223z" />
<glyph unicode="J" horiz-adv-x="530" d="M20 -8v205q30 -9 72 -9q75 0 107 66q12 18 12 164v1073h221v-1096q0 -79 -7.5 -139t-28 -114t-54 -88t-87 -54t-126.5 -20q-74 0 -109 12z" />
<glyph unicode="K" horiz-adv-x="985" d="M106 0v1491h222v-649l366 649h228l-330 -557l377 -934h-232l-274 715l-135 -232v-483h-222z" />
<glyph unicode="L" d="M111 0v1491h217v-1292h454v-199h-671z" />
<glyph unicode="M" horiz-adv-x="1366" d="M111 0v1491h333l244 -1002l246 1002h332v-1491h-205v1206l-275 -1206h-194l-275 1206v-1206h-206z" />
<glyph unicode="N" horiz-adv-x="1062" d="M113 0v1491h290l349 -1063v1063h209v-1491h-287l-355 1096v-1096h-206z" />
<glyph unicode="O" horiz-adv-x="948" d="M96 412v2v669q0 426 381 426q79 0 141.5 -19.5t102 -48t68 -72.5t41.5 -79t20.5 -83t8.5 -70.5t1 -53.5v-669q0 -32 -0.5 -50.5t-4 -57t-9.5 -64.5t-19.5 -63t-32 -62.5t-48 -53t-66.5 -44.5t-89 -28t-114 -11q-79 0 -141 18t-101.5 43.5t-67.5 67.5t-41.5 75.5t-20.5 84 t-8 76t-1 67.5zM315 386q0 -9 1.5 -31t4 -34.5t8 -33t13.5 -33t20.5 -27.5t28 -23t37.5 -14t49 -6q39 0 69 11t47 32.5t27.5 42t14.5 52t5 48t1 44.5v669q0 27 -1 43.5t-5 47.5t-14.5 51t-27.5 41t-47 32t-69 11q-33 0 -59.5 -9.5t-43.5 -23.5t-29 -36.5t-17.5 -40.5 t-8.5 -44t-3.5 -39t-0.5 -33v-669v-28z" />
<glyph unicode="P" horiz-adv-x="948" d="M113 0v1491h315q42 0 65 -0.5t67 -4t71 -10t66 -20t63.5 -32.5t52.5 -49t43.5 -68t26 -90.5t10.5 -116.5q0 -98 -10.5 -167t-40 -128.5t-81 -95t-134 -55t-199.5 -19.5h-98v-635h-217zM330 840h98q40 0 63.5 1.5t52.5 6.5t46 15.5t35 29t26.5 46.5t14.5 68t6 93 q0 62 -15 100.5t-49.5 57.5t-74.5 25.5t-105 6.5h-98v-450z" />
<glyph unicode="Q" horiz-adv-x="985" d="M115 416v671q0 20 0.5 38t8 64t20.5 83t41 83.5t67 78t101.5 53.5t140.5 22q62 0 114 -12.5t89 -31.5t66.5 -48.5t48 -57.5t32 -64.5t19.5 -63t9.5 -60.5t4 -48.5t0.5 -35.5v-671q0 -19 -3.5 -47t-15 -73.5t-40 -85.5t-70.5 -58l235 36v-192q-74 4 -106 4q-83 0 -217 -10 t-166 -10q-60 1 -110 12t-86.5 27t-65.5 42t-48 51t-32.5 59.5t-20.5 62t-10.5 65t-4.5 61t-1 56.5zM332 416q0 -24 0.5 -40t4 -44t9.5 -47t18 -41.5t29 -36.5t44 -23.5t61 -9.5q39 1 68 13.5t46 36t27.5 45t14 54.5t4.5 49.5t1 43.5v671q0 15 -1 27.5t-4.5 42t-14.5 52 t-27 46t-46 37t-68 13.5q-46 0 -79 -20.5t-49 -46.5t-25 -62t-10 -53.5t-1 -35.5z" />
<glyph unicode="R" horiz-adv-x="985" d="M117 0v1491h311q66 0 100 -1t93 -9t91.5 -23t74 -45t62.5 -73.5t36.5 -110.5t15.5 -154q0 -93 -12.5 -158.5t-39 -108.5t-58 -68t-80.5 -48l258 -692h-236l-227 647q-38 -4 -168 -4v-643h-221zM338 829h102q139 0 188.5 52t49.5 194q0 112 -52 163.5t-186 51.5h-102v-461 z" />
<glyph unicode="S" horiz-adv-x="872" d="M61 356v131h218v-131q16 -176 167 -176q71 0 113.5 46t42.5 130q0 59 -29 112t-75 96t-102 86t-112 92t-102 104t-75 131.5t-29 165.5q0 168 99.5 267t273.5 99q94 0 165 -31.5t111 -85.5t59 -116.5t19 -132.5v-119h-215v119q0 63 -35.5 116.5t-103.5 53.5 q-71 0 -112.5 -45.5t-41.5 -124.5q0 -58 29 -111t75 -96.5t102 -88t112 -94t102 -104.5t75 -131t29 -162q0 -173 -100.5 -274.5t-274.5 -101.5q-103 0 -180.5 32.5t-120.5 88t-63.5 119.5t-20.5 136z" />
<glyph unicode="T" horiz-adv-x="833" d="M37 1292v199h772v-199h-272v-1292h-228v1292h-272z" />
<glyph unicode="U" horiz-adv-x="985" d="M115 494v997h221v-997v-62.5t1.5 -55t4.5 -51t8.5 -41.5t13.5 -36.5t20.5 -27t28.5 -22t38 -11.5t49 -5t49 5t38 11.5t28.5 22t20.5 27t13.5 36.5t8.5 41.5t4.5 51t1.5 55v62.5v997h223v-997q0 -57 -1 -91t-8.5 -95t-21.5 -99.5t-42.5 -86.5t-68.5 -75.5t-102.5 -47 t-142.5 -19.5t-142.5 19.5t-102.5 47t-68 76t-42 86t-21 99.5t-8 95t-1 91z" />
<glyph unicode="V" horiz-adv-x="909" d="M14 1491h226l217 -1131l219 1131h223l-305 -1491h-272z" />
<glyph unicode="W" horiz-adv-x="1402" d="M43 1491h217l150 -1040l182 1040h231l185 -1040l147 1040h219l-250 -1491h-227l-188 1034l-189 -1034h-229z" />
<glyph unicode="X" horiz-adv-x="948" d="M23 0l329 768l-313 723h237l203 -512l201 512h238l-314 -723l330 -768h-225l-230 563l-231 -563h-225z" />
<glyph unicode="Y" horiz-adv-x="948" d="M27 1491h233l223 -584l224 584h231l-340 -866v-625h-229v625z" />
<glyph unicode="Z" horiz-adv-x="833" d="M47 0v199l500 1093h-492v199h725v-199l-495 -1093h506v-199h-744z" />
<glyph unicode="[" horiz-adv-x="454" d="M66 -236v1727h374v-131h-184v-1466h184v-130h-374z" />
<glyph unicode="\" horiz-adv-x="454" d="M35 1491h149l224 -1696h-148z" />
<glyph unicode="]" horiz-adv-x="454" d="M20 -104h185v1466h-185v129h373v-1727h-373v132z" />
<glyph unicode="^" horiz-adv-x="512" d="M-4 1042l219 449h121l203 -449h-121l-146 342l-155 -342h-121z" />
<glyph unicode="_" horiz-adv-x="1167" d="M0 -184h1167v-95h-1167v95z" />
<glyph unicode="`" horiz-adv-x="385" d="M31 1511h227l125 -297h-168z" />
<glyph unicode="a" d="M53 285q0 56 8 103t21.5 83t35.5 65.5t45.5 50t57.5 37.5t64 27t73 18.5t77.5 13t82.5 9.5v41q0 115 -27.5 165t-91.5 50q-40 0 -65.5 -16t-36.5 -46t-14.5 -57.5t-3.5 -66.5h-207q0 360 327 360q52 0 95 -9.5t74.5 -24.5t56.5 -39t40.5 -46.5t27 -54.5t17.5 -56.5t9 -58 t3.5 -53t0.5 -47.5v-733h-205v106q-63 -61 -113 -90.5t-120 -29.5q-51 0 -92 18.5t-66.5 48t-42.5 69.5t-24 80t-7 83zM260 319q0 -139 115 -139q19 0 40 8.5t33 16t37.5 26t32.5 23.5v274q-105 -17 -145 -34q-113 -47 -113 -175z" />
<glyph unicode="b" d="M78 0v1497h205v-483q2 1 24.5 16t26.5 18t24.5 15.5t28 16t25.5 13t29 12.5t27 8.5t30 7t28 1.5q45 0 79.5 -12t57 -28.5t38 -48t23.5 -56t12 -69t4.5 -70t0.5 -74.5v-387q0 -36 -0.5 -54.5t-1.5 -53.5t-4 -55t-8 -50.5t-13 -48.5t-19.5 -41.5t-27.5 -37t-36 -26.5 t-46.5 -18.5t-58.5 -5.5q-35 0 -70 9.5t-57 19.5t-50.5 30.5t-36.5 27.5t-29 25v-98h-205zM283 254q57 -57 84 -72.5t51 -15.5q30 0 51.5 6.5t35 22.5t21 30.5t11 44.5t4 49t0.5 58v387q0 180 -111 180q-25 0 -55 -16t-46.5 -30.5t-45.5 -41.5v-602z" />
<glyph unicode="c" horiz-adv-x="757" d="M59 336v436q0 23 1 40.5t7 57t17.5 69t36.5 66t59 60.5t88.5 40.5t122.5 16.5q320 0 320 -350v-51h-195v51q0 174 -125 174q-131 0 -131 -174v-436q0 -22 0.5 -35t4 -37t12 -38.5t22 -30.5t37.5 -23.5t55 -7.5q34 0 59 15t37.5 34t19.5 46.5t8 43t1 33.5v74h195v-74 q0 -56 -7 -101.5t-27.5 -93.5t-55 -80.5t-93 -53.5t-137.5 -21q-80 0 -140.5 21.5t-96 55t-58 81t-30 93.5t-7.5 99z" />
<glyph unicode="d" d="M63 344v418q0 35 1 62t5.5 66.5t13 69t24 61.5t37.5 53t55 34.5t75 13.5q32 0 62 -7t61.5 -23t47.5 -25t48 -32t35 -25v487h201v-1497h-201v98q-2 -2 -18 -13.5t-27.5 -19.5t-32 -20.5t-40 -21.5t-42 -18.5t-47 -14t-47.5 -4.5q-43 0 -77 12.5t-56 31t-37.5 50.5 t-23.5 58.5t-12 69t-4.5 68t-0.5 68.5zM266 344q0 -35 1 -53t6.5 -46.5t16 -42.5t32.5 -25t53 -11q10 0 21 2.5t19.5 5.5t20.5 10t19 11t20 14t17.5 14t18.5 15t17 14v610q-110 82 -151 82q-111 0 -111 -182v-418z" />
<glyph unicode="e" d="M66 377v391q0 18 1 35t7.5 55.5t18 69.5t36.5 69t58.5 63.5t88.5 43.5t123 18q69 0 123.5 -16.5t89 -40t59 -60t36.5 -65.5t18 -69t7 -58.5t1 -44.5v-266h-467v-125q0 -27 0.5 -42t3 -41t7 -41t14 -34.5t23 -29.5t35 -17.5t48.5 -7.5q32 0 56.5 9.5t38.5 29t23 38 t12 47.5t4 45t1 44h201q0 -40 -2 -72.5t-10 -74.5t-21.5 -74.5t-39 -65.5t-60 -55t-86.5 -35.5t-117 -13.5q-68 0 -122 18t-88 44t-58.5 66t-36 72.5t-18 76.5t-7.5 64.5t-1 49.5zM266 686h266v82q0 180 -126 180q-140 0 -140 -180v-82z" />
<glyph unicode="f" horiz-adv-x="569" d="M18 926v182h160v72q0 34 0.5 52t3 50t7 49.5t14 43.5t23.5 41t35.5 32.5t49 26.5t65 15.5t83.5 6.5q34 0 108 -4v-180q-36 4 -57 4q-44 0 -70 -8t-38 -28t-15.5 -41.5t-3.5 -59.5v-72h174v-182h-174v-926h-205v926h-160z" />
<glyph unicode="g" d="M35 -147q0 31 13.5 57.5t25.5 41t44 31t39 19.5t40 14q7 3 10 4q-25 8 -39 14t-37.5 21t-35 39t-11.5 56q0 21 5.5 39.5t12 31.5t20.5 26t22.5 20t27.5 16t26 12t26.5 10t21.5 8q-40 16 -63 29t-50 40t-41 63.5t-23.5 97.5t-9.5 145q0 80 7 140t27.5 117.5t55 94.5 t93 59.5t137.5 22.5q42 0 125 -15t125 -15q24 0 47 3t34.5 6t36.5 11t33 10v-196q-95 8 -147 28q23 -26 36 -48.5t24.5 -78.5t11.5 -139q0 -202 -69 -301.5t-239 -99.5q-8 0 -24.5 1t-24.5 1q-51 -32 -51 -62q0 -28 45.5 -36.5t129.5 -14t136 -20.5q84 -24 127 -83.5 t43 -144.5q0 -133 -111.5 -203.5t-275.5 -70.5q-155 0 -255.5 53.5t-100.5 145.5zM242 -84q0 -102 172 -102q78 0 127 27.5t49 78.5q0 14 -4 25t-14 19t-20.5 13.5t-28.5 9.5t-33.5 6.5t-40.5 4.5t-44 3t-49 2.5t-51 2.5q-21 -18 -30.5 -27t-21 -27.5t-11.5 -35.5zM260 688 q0 -41 0.5 -61t3.5 -51.5t10.5 -46.5t20.5 -32t34 -23.5t50 -6.5q30 0 52.5 7.5t35.5 25t21 33.5t11.5 47.5t4 50.5t0.5 57q0 43 -0.5 64t-2.5 54t-6.5 49t-13.5 36.5t-22.5 29.5t-33.5 16t-46 7q-29 0 -50 -10t-33.5 -32t-20.5 -42.5t-11 -56t-3.5 -56t-0.5 -59.5z" />
<glyph unicode="h" d="M72 0v1497h209v-496q37 32 121 76.5t141 44.5q48 0 81.5 -9.5t55 -36t33.5 -50t17 -77.5t6 -90t1 -114v-4v-741h-205v741v7q0 35 -0.5 52t-3 43.5t-8 38.5t-15 26t-25.5 19t-38 5q-13 0 -25 -2t-24 -6.5t-21 -8t-20 -12t-17 -12.5t-16.5 -14.5t-13.5 -13t-13 -13.5 l-11 -12v-838h-209z" />
<glyph unicode="i" horiz-adv-x="342" d="M72 0v1108h202v-1108h-202zM72 1274v217h202v-217h-202z" />
<glyph unicode="j" horiz-adv-x="378" d="M-49 -162q32 -4 51 -4q30 0 50 9t30.5 21.5t16 39t6.5 47.5t1 61v1096h205v-1096q0 -35 -0.5 -53.5t-2.5 -53t-6 -55t-13 -50.5t-21 -48t-31 -39t-43.5 -32t-58 -19t-74.5 -8q-36 0 -110 8v176zM106 1274v217h205v-217h-205z" />
<glyph unicode="k" d="M72 0v1497h207v-858l258 469h225l-236 -387l252 -721h-211l-170 537l-118 -187v-350h-207z" />
<glyph unicode="l" horiz-adv-x="342" d="M76 0v1497h203v-1497h-203z" />
<glyph unicode="m" horiz-adv-x="1251" d="M57 0v1108h189v-117l17 17q17 17 26 24t29.5 23.5t39.5 25.5t44.5 20t54.5 16t61 5q127 0 172 -131q22 23 30 31t38.5 32t56 35.5t68.5 22t90 10.5q50 0 85 -11t56.5 -41.5t34 -57.5t18 -87.5t6.5 -101t1 -127.5v-696h-197v696q0 46 -1 71.5t-4 58.5t-10 50t-18.5 34.5 t-30.5 24.5t-45 7q-84 0 -151 -86v-856h-199v780q0 76 -25.5 115t-84.5 39q-74 0 -152 -78v-856h-199z" />
<glyph unicode="n" d="M70 0v1108h196v-109q4 3 25 20.5t31 24.5t31.5 22t39 22.5t41.5 16.5t50.5 13t54.5 4q56 0 93.5 -20t57 -45.5t29 -85t11 -101t1.5 -129.5v-4v-737h-203v737q0 42 -0.5 61t-3 47.5t-8.5 41t-16 26.5t-26.5 18.5t-39.5 4.5q-36 0 -71 -17.5t-49 -30t-40 -38.5v-850h-204z " />
<glyph unicode="o" d="M61 391v334q0 25 0.5 41.5t3.5 50.5t8.5 58t17 58.5t27.5 59t42 51t58 43t77.5 27t99.5 10.5t99.5 -10.5t77.5 -27t58 -43t42 -51t27.5 -59t17 -58.5t8.5 -58t3.5 -50.5t0.5 -41.5v-334q0 -31 -0.5 -49t-3.5 -54.5t-8.5 -60.5t-17 -58.5t-27.5 -57.5t-42 -48.5t-58 -41 t-77.5 -25.5t-99.5 -10t-99.5 10t-77.5 25.5t-58 41t-42 48.5t-27.5 57.5t-17 58.5t-8.5 60.5t-3.5 54.5t-0.5 49zM260 391q0 -31 1 -48.5t4 -49t12 -51t23 -40t38.5 -30.5t56.5 -10q28 0 50 8t35.5 19t23.5 32.5t14.5 36.5t7 44.5t2.5 43.5v45v334v41t-2.5 41t-7 43 t-14.5 36t-23.5 32t-35.5 19.5t-50 8.5q-32 0 -56.5 -9.5t-38.5 -29t-23 -38t-12 -49t-4 -47.5t-1 -48v-334z" />
<glyph unicode="p" d="M74 -346v1454h205v-98l22.5 18t23.5 18.5t22.5 16.5t25.5 16.5t25 13.5t28.5 12.5t29.5 8.5t35 6.5t37 1.5q30 0 56 -5.5t45 -17.5t34.5 -25t26.5 -35.5t19 -40t13 -48.5t7.5 -51t4 -56.5t1.5 -56.5v-59l2 -367q0 -47 -1 -76t-5 -73.5t-12 -71.5t-23.5 -59.5t-37.5 -50.5 t-56 -30.5t-78 -12.5q-25 0 -49.5 4.5t-47 13t-40.5 16.5t-37 21t-29.5 20t-25 18.5t-16.5 12.5v-438h-205zM279 250q80 -86 143 -86q27 0 47.5 7t32.5 23.5t19 31t10 42t3.5 44t0.5 48.5v355q0 40 -0.5 61.5t-4 51t-10.5 45.5t-19 32t-32 22.5t-47 6.5q-65 0 -143 -78v-606 z" />
<glyph unicode="q" d="M63 360v422q0 35 1 61.5t6 64t13 65t24 57t38 48.5t55.5 31.5t75.5 12.5q41 0 77 -10t73 -33.5t51 -33.5t49 -39v102h199v-1454h-199v440q-60 -38 -85.5 -53.5t-76 -35t-92.5 -19.5q-43 0 -77 13t-56 31t-37 51.5t-22.5 59.5t-11.5 72t-4.5 72t-0.5 75zM264 360 q0 -42 0.5 -61t3.5 -46.5t10.5 -39.5t20 -25t33 -17.5t49.5 -4.5q16 0 31 4.5t31.5 15.5t27 19t29.5 24.5t26 22.5v612q-6 5 -26 21.5t-30 23.5t-27.5 17.5t-32.5 15t-31 4.5q-115 0 -115 -164v-422z" />
<glyph unicode="r" horiz-adv-x="569" d="M88 0v1108h197v-156q107 165 266 170v-219q-36 8 -53 8q-44 0 -79.5 -11.5t-60 -33t-38.5 -39t-30 -41.5l-3 -4.5t-2 -3.5v-778h-197z" />
<glyph unicode="s" horiz-adv-x="757" d="M43 326v55h205v-55q0 -22 4.5 -45t16 -52t37.5 -47t63 -18q141 0 141 125q0 52 -25 90.5t-64.5 63.5t-87 48t-95.5 50.5t-87.5 63.5t-64.5 95.5t-25 137.5q0 121 87.5 202.5t234.5 81.5q149 0 235.5 -87.5t86.5 -229.5v-43h-199v43q0 26 -9.5 56.5t-39.5 59.5t-74 29 q-51 0 -87 -32t-36 -80q0 -43 25.5 -77.5t66 -58.5t89.5 -48.5t98.5 -55t90 -69.5t66 -100.5t25.5 -139.5q0 -141 -97 -222t-257 -81q-159 0 -241.5 88t-82.5 252z" />
<glyph unicode="t" horiz-adv-x="569" d="M20 926v182h146v262h203v-262h170v-182h-170v-582q0 -34 0.5 -47t2.5 -37t6.5 -33.5t13.5 -23.5t23 -19t34.5 -9.5t48.5 -4.5q3 0 57 6v-186q-43 -4 -129 -4q-76 0 -127 20t-77 45.5t-39 81.5t-15 94t-2 117v582h-146z" />
<glyph unicode="u" d="M66 323v60v725h204v-725q0 -36 0.5 -55.5t3.5 -49t9.5 -45.5t17 -33t28.5 -24.5t42 -7.5q39 0 84.5 30.5t68.5 59.5v850h203v-1108h-203v109l-9 -7q-9 -7 -14.5 -12t-19 -14.5t-24 -16.5t-27 -17t-31.5 -17.5t-33.5 -15t-36 -12.5t-37 -8t-38.5 -3q-31 0 -56 8.5 t-43.5 21t-33 35.5t-23.5 42.5t-15.5 53t-9.5 56t-5 61t-2 59.5z" />
<glyph unicode="v" d="M12 1108h205l184 -772l185 772h202l-278 -1108h-217z" />
<glyph unicode="w" horiz-adv-x="1175" d="M18 1108h193l135 -789l141 789h207l144 -789l135 789h190l-211 -1108h-213l-147 764l-150 -764h-213z" />
<glyph unicode="x" d="M16 0l260 573l-243 535h219l145 -381l148 381h219l-246 -535l262 -573h-205l-178 426l-176 -426h-205z" />
<glyph unicode="y" d="M14 1108h205l189 -791l174 791h198l-219 -879q-67 -266 -89 -331q-50 -147 -123 -199q-62 -45 -167 -45q-57 0 -116 6v174q36 -4 61 -4q24 0 48.5 5.5t52 19t44.5 41.5t17 67q0 10 -0.5 20t-2.5 23.5t-3.5 23.5t-5.5 28t-6 27.5t-7.5 32.5t-8 33t-9.5 38.5t-10 39.5z" />
<glyph unicode="z" horiz-adv-x="681" d="M20 0v184l408 742h-391v182h618v-182l-403 -742h407v-184h-639z" />
<glyph unicode="{" horiz-adv-x="892" d="M219 473v64q58 14 134.5 79.5t86.5 118.5q6 28 6 61t-4 67.5t-9.5 63t-12.5 65t-10 55.5q-15 102 -8 155t47 123q34 60 114.5 105.5t149 63t100.5 15.5v-47q-145 -49 -199 -188q-9 -23 -13.5 -44t-4.5 -45.5t0.5 -39t4.5 -47.5t5 -47q3 -27 11.5 -81.5t10.5 -82t-6 -74 t-30 -92.5q-20 -43 -147.5 -128.5t-163.5 -88.5q65 -11 132.5 -54t109 -88t57.5 -79q22 -46 30 -92t6 -74t-10 -80.5t-10 -79.5q-1 -14 -5 -47t-4.5 -47.5t-0.5 -39t4.5 -45.5t13.5 -44q53 -138 199 -187v-49q-32 -2 -101 16t-150.5 63.5t-115.5 105.5q-38 67 -45 123t4 155 q2 28 15 94.5t18.5 108.5t-0.5 104q-10 53 -80.5 119t-128.5 86z" />
<glyph unicode="|" horiz-adv-x="512" d="M219 -289v1780h109v-1780h-109z" />
<glyph unicode="}" horiz-adv-x="948" d="M158 -453q144 48 198 189q9 23 14 44t5 46.5t-0.5 38t-4.5 47.5t-5 47q-3 26 -11 81t-10 82t5.5 73t29.5 92q20 43 147.5 129.5t163.5 89.5q-95 16 -183.5 89t-115.5 130q-22 46 -30 92t-6 74.5t9 80t9 79.5q1 18 5 58t5 58t-3 48.5t-15 58.5q-53 137 -199 186v49 q32 2 101 -15.5t150 -63t115 -105.5q39 -69 46.5 -123t-5.5 -155q-3 -22 -11.5 -69t-14 -79.5t-9 -82t4.5 -77.5q10 -52 80.5 -117t128.5 -85v-64q-58 -15 -135.5 -81.5t-86.5 -119.5q-4 -37 -5 -62t4 -64.5t9.5 -64.5t12 -61.5t10.5 -56.5q16 -105 8.5 -155t-47.5 -123 q-33 -60 -113.5 -105.5t-149.5 -63.5t-101 -16v47z" />
<glyph unicode="~" horiz-adv-x="1517" d="M336 496q24 272 201 272q55 1 122.5 -32t119.5 -73t110.5 -73.5t97.5 -34.5q23 0 41 9t27.5 22t17 33.5t10 35.5t5 36.5t4.5 29.5h98q-5 -47 -12 -83t-21 -73t-35 -61t-54 -39.5t-77 -15.5q-64 -1 -132 32t-116 72t-106 72t-105 32q-16 0 -28.5 -5t-22 -18.5t-15 -23.5 t-11 -33t-7.5 -32.5t-6 -36.5q-1 -8 -2 -12h-104z" />
<glyph unicode="&#xa0;" horiz-adv-x="909" d="M0 0z" />
<glyph unicode="&#xa1;" horiz-adv-x="569" d="M150 -313l59 1018h153l60 -1018h-272zM176 879v229h219v-229h-219z" />
<glyph unicode="&#xa2;" horiz-adv-x="909" d="M133 578v331q0 344 238 394v247h182v-247q32 -9 57 -19t62.5 -35.5t62.5 -58.5t43.5 -89t18.5 -126v-66h-199v66q0 78 -37.5 118t-93.5 40q-33 0 -57 -9t-38 -29t-22 -37t-11.5 -49.5t-4 -48.5t-0.5 -51v-331v-43.5t1.5 -40.5t5 -40.5t9.5 -33.5t16 -31.5t24 -22t34 -16 t45 -4.5q36 0 62 14t38.5 32.5t19.5 49.5t8 51t1 52v55h199v-55q0 -66 -12 -123.5t-38.5 -109.5t-76 -88.5t-117.5 -49.5v-266h-182v266q-135 41 -186.5 134.5t-51.5 269.5z" />
<glyph unicode="&#xa3;" horiz-adv-x="909" d="M20 705v174h154v272q0 30 1 49.5t7 60.5t17.5 70t36 65t58.5 58.5t88 38.5t122 16q80 0 141.5 -21t97 -53t58 -76.5t30 -86t7.5 -86.5v-66h-207v66q0 60 -30 103.5t-95 43.5q-123 0 -123 -182v-272h225v-174h-225v-529h455v-176h-785v176h121v529h-154z" />
<glyph unicode="&#xa4;" horiz-adv-x="1024" d="M12 252l144 143q-108 133 -105 299q3 162 109 287l-140 143l62 64l139 -144q68 51 131 74.5t146 26.5q95 3 166 -17.5t145 -74.5l147 137l64 -64l-141 -145q55 -67 80.5 -137.5t25.5 -159.5q0 -166 -106 -293l141 -141l-59 -57l-144 145q-131 -108 -293 -111 q-93 -1 -163.5 23t-143.5 82l-139 -142zM154 690q-1 -157 107 -262.5t261 -105.5q149 0 256.5 105.5t108.5 254.5q2 153 -105.5 262.5t-265.5 108.5q-149 0 -255.5 -107t-106.5 -256z" />
<glyph unicode="&#xa5;" horiz-adv-x="909" d="M27 1491h233l225 -584l224 584h233l-340 -866v-140h174v-102h-174v-102h174v-103h-174v-178h-235v178h-174v103h174v102h-174v102h174v140z" />
<glyph unicode="&#xa7;" horiz-adv-x="909" d="M141 752q0 74 14 124.5t43.5 79.5t64.5 43.5t87 22.5q-36 13 -60 26t-53.5 38t-45 65.5t-15.5 95.5q0 129 89.5 195.5t232.5 66.5q73 0 213 -24v-152q-2 0 -32 7.5t-47.5 10.5t-50.5 7t-63 4q-72 0 -117 -30.5t-45 -84.5q0 -99 185 -178q41 -17 67.5 -31t60 -39t53.5 -54 t34 -73.5t14 -99.5q0 -61 -12 -107t-30.5 -74t-48 -47.5t-57.5 -28.5t-65 -15q23 -7 40 -13t49 -25.5t52.5 -44t37 -68.5t16.5 -99q0 -132 -96.5 -201t-282.5 -69q-36 0 -64 1.5t-50.5 4.5t-34.5 5.5t-34 7.5t-30 7v160q7 -2 29.5 -8t31.5 -8t29 -6.5t32 -7t29 -5t32 -3.5 t30 -1q97 0 144.5 37.5t47.5 85.5q0 24 -6 45.5t-13.5 36.5t-25 31.5t-29 25.5t-37.5 23.5t-38 20.5t-43 20q-47 21 -75 36.5t-61.5 41t-52 54t-31 71t-12.5 96.5zM330 762q0 -84 32.5 -131t92.5 -47q63 0 96 46.5t33 131.5q0 84 -32.5 130t-94.5 46t-94.5 -46t-32.5 -130z " />
<glyph unicode="&#xa8;" horiz-adv-x="499" d="M-49 1214v203h201v-203h-201zM297 1214v203h201v-203h-201z" />
<glyph unicode="&#xa9;" horiz-adv-x="1024" d="M27 1024q0 129 63.5 240t173 177t238.5 68t241 -58.5t180.5 -167.5t73.5 -236q5 -134 -60.5 -251t-180.5 -186.5t-248 -68.5q-97 1 -186 39.5t-153.5 103.5t-103 154t-38.5 186zM100 1020q2 -169 123 -290.5t289 -121.5q114 0 212.5 60t154.5 161t51 215 q-6 168 -132.5 284.5t-295.5 111.5q-110 -3 -203 -61t-146.5 -153.5t-52.5 -205.5zM258 1032q0 108 72 189t178 88q127 9 217 -78l-47 -47q-65 62 -170 59q-80 -4 -133 -68.5t-53 -150.5q0 -81 57 -139.5t139 -63.5q103 -3 166 66l47 -45q-40 -41 -97 -63.5t-122 -18.5 q-107 7 -180.5 86t-73.5 186z" />
<glyph unicode="&#xaa;" horiz-adv-x="909" d="M176 987q0 52 16 92.5t44 66t61.5 42.5t73.5 26t74.5 13.5t69.5 7.5q6 0 9.5 0.5t8 1t8.5 0.5q0 152 -97 152q-108 0 -108 -113h-152q0 233 260 233q109 0 177.5 -54.5t68.5 -174.5v-487h-149v77q-83 -90 -191 -90q-82 0 -128 54t-46 153zM328 993q0 -42 23.5 -66 t62.5 -24q56 0 127 64v163q-2 0 -8 -1q-24 -3 -39 -5.5t-43 -8.5t-46 -15.5t-37.5 -23.5t-29.5 -35.5t-10 -47.5z" />
<glyph unicode="&#xab;" horiz-adv-x="720" d="M59 612l146 406h149l-121 -406l123 -413h-157zM375 612l145 406h148l-123 -406l123 -413h-152z" />
<glyph unicode="&#xac;" horiz-adv-x="1517" d="M45 725v111h1421v-586h-100v475h-1321z" />
<glyph unicode="&#xad;" horiz-adv-x="454" d="M37 508v182h375v-182h-375z" />
<glyph unicode="&#xae;" horiz-adv-x="1024" d="M39 1034q2 129 67 238.5t175 173t239 63.5q194 0 334.5 -136t146.5 -329q4 -132 -60.5 -248t-178 -185.5t-244.5 -69.5q-129 0 -240.5 67.5t-176 181.5t-62.5 244zM111 1030q-1 -111 53 -208t148 -155t204 -59q113 -1 211.5 59t154 161t50.5 214q-6 164 -124 279.5 t-282 116.5q-169 1 -291 -119t-124 -289zM346 786v508h191q17 0 33.5 -1.5t44 -10t47.5 -23.5t35 -45t16 -71q1 -59 -23 -91t-72 -51l95 -215h-86l-82 209h-123v-209h-76zM420 1063h110q59 0 83 19q26 22 26 65q0 38 -30 57t-70 19h-119v-160z" />
<glyph unicode="&#xaf;" horiz-adv-x="524" d="M-53 1214v160h575v-160h-575z" />
<glyph unicode="&#xb0;" horiz-adv-x="909" d="M170 1223q0 126 78.5 206t202.5 80q125 0 201.5 -78t76.5 -208q0 -155 -74 -231.5t-204 -76.5q-128 0 -204.5 78t-76.5 230zM297 1223q0 -90 37.5 -144.5t116.5 -54.5t115 54.5t36 144.5q0 76 -36 127t-115 51t-116.5 -51t-37.5 -127z" />
<glyph unicode="&#xb1;" horiz-adv-x="1517" d="M301 -57v147h907v-147h-907zM301 537v147h377v385h153v-385h377v-147h-377v-365h-153v365h-377z" />
<glyph unicode="&#xb4;" horiz-adv-x="444" d="M92 1214l123 297h227l-190 -297h-160z" />
<glyph unicode="&#xb6;" horiz-adv-x="909" d="M41 997q0 113 59 227t168 175q92 51 203.5 71.5t259.5 20.5h160v-61h-148v-1801h-59v1801h-117l2 -1801h-71v910q-123 1 -228 61.5t-167 166t-62 230.5z" />
<glyph unicode="&#xb7;" horiz-adv-x="909" d="M336 606v256h239v-256h-239z" />
<glyph unicode="&#xb8;" horiz-adv-x="364" d="M25 -346l168 272h169l-110 -272h-227z" />
<glyph unicode="&#xba;" horiz-adv-x="909" d="M199 1057v184q0 15 0.5 27t5.5 41.5t14 53t28 52t45 48t68.5 33t94.5 13.5q46 0 84.5 -9.5t64 -27t45 -37t30.5 -45.5t18.5 -46t10 -44.5t3 -35t0.5 -23.5v-184q0 -23 -0.5 -38t-5.5 -46.5t-14 -53.5t-28 -50t-45 -45.5t-68 -29.5t-95 -12t-95 12t-68 29.5t-45 45.5 t-28 50t-14 53.5t-5.5 46.5t-0.5 38zM352 1057q0 -144 103 -144q29 0 49.5 11.5t30.5 26t15.5 38t6 36t0.5 32.5v184q0 25 -0.5 39t-6 37t-15.5 35t-30.5 22t-49.5 10t-49.5 -10t-31 -22.5t-15.5 -35t-6 -36.5t-1 -39v-184z" />
<glyph unicode="&#xbb;" horiz-adv-x="720" d="M59 1018h154l141 -414l-145 -405h-148l123 405zM373 1018h157l138 -414l-144 -405h-149l119 405z" />
<glyph unicode="&#xbf;" horiz-adv-x="757" d="M43 -41q0 59 25.5 120.5t62 115l73 107t62 116t25.5 123.5v161h178v-161q0 -81 -22 -156.5t-53.5 -131t-62.5 -104.5t-53 -98t-22 -92q0 -59 34.5 -91t84.5 -32q127 0 127 174h209q0 -48 -8 -92.5t-32 -93.5t-61 -84.5t-101 -58.5t-147 -23q-143 0 -231 78.5t-88 222.5z M268 879v229h224v-229h-224z" />
<glyph unicode="&#xc0;" horiz-adv-x="948" d="M20 0l306 1491h305l305 -1491h-215l-66 340h-354l-65 -340h-216zM231 1878h228l125 -297h-168zM342 543h272l-135 700z" />
<glyph unicode="&#xc1;" horiz-adv-x="948" d="M20 0l306 1491h305l305 -1491h-215l-66 340h-354l-65 -340h-216zM342 543h272l-135 700zM391 1581l123 297h227l-190 -297h-160z" />
<glyph unicode="&#xc2;" horiz-adv-x="948" d="M20 0l306 1491h305l305 -1491h-215l-66 340h-354l-65 -340h-216zM166 1581l172 297h242l172 -297h-179l-114 207l-113 -207h-180zM342 543h272l-135 700z" />
<glyph unicode="&#xc3;" horiz-adv-x="948" d="M20 0l306 1491h305l305 -1491h-215l-66 340h-354l-65 -340h-216zM246 1581q0 231 108 231q43 0 126.5 -39.5t101.5 -39.5q17 0 27.5 7t14.5 22.5t4.5 23t0.5 24.5h125v-8q3 -221 -115 -221q-31 0 -117 37t-96 37q-7 0 -13.5 -1.5t-11.5 -3.5t-9 -6.5t-6.5 -7.5t-4.5 -9.5 t-3 -9.5t-2 -10t-1.5 -9.5t-1 -9t-0.5 -7.5h-127zM342 543h272l-135 700z" />
<glyph unicode="&#xc4;" horiz-adv-x="948" d="M20 0l306 1491h305l305 -1491h-215l-66 340h-354l-65 -340h-216zM193 1581v203h200v-203h-200zM342 543h272l-135 700zM539 1581v203h200v-203h-200z" />
<glyph unicode="&#xc5;" horiz-adv-x="948" d="M20 0l306 1491h305l305 -1491h-215l-66 340h-354l-65 -340h-216zM268 1753q0 82 59.5 128t149.5 46t148.5 -45.5t58.5 -128.5q0 -77 -58.5 -124.5t-148.5 -47.5q-91 0 -150 47.5t-59 124.5zM342 543h272l-135 700zM389 1757q0 -35 26.5 -62.5t61.5 -27.5t61.5 27.5 t26.5 62.5q0 33 -27 57.5t-61 24.5t-61 -24.5t-27 -57.5z" />
<glyph unicode="&#xc6;" horiz-adv-x="1290" d="M23 0l426 1491h757v-199h-430l47 -424h355v-198h-336l45 -471h362v-199h-561l-29 338h-329l-88 -338h-219zM383 541h258l-66 725z" />
<glyph unicode="&#xc7;" horiz-adv-x="909" d="M102 399v723q0 72 16 131t41 98t60 69t69 46.5t72.5 26.5t66.5 13t54 3q169 0 264 -94.5t95 -292.5v-139h-219v139q0 95 -33 142t-107 47q-47 0 -80.5 -25t-48 -60.5t-20.5 -61.5t-6 -42v-723q0 -107 34 -164t125 -57q136 0 136 221v117h219v-117q0 -61 -6.5 -112 t-28.5 -110.5t-58.5 -100.5t-104 -68.5t-157.5 -27.5q-94 0 -164.5 25t-111.5 64t-66 96.5t-33 112t-8 121.5zM229 -346l168 272h170l-110 -272h-228z" />
<glyph unicode="&#xc8;" horiz-adv-x="833" d="M111 0v1491h673v-199h-454v-424h401v-198h-401v-471h467v-199h-686zM219 1878h227l125 -297h-168z" />
<glyph unicode="&#xc9;" horiz-adv-x="833" d="M111 0v1491h673v-199h-454v-424h401v-198h-401v-471h467v-199h-686zM365 1581l122 297h228l-191 -297h-159z" />
<glyph unicode="&#xca;" horiz-adv-x="833" d="M111 0v1491h673v-199h-454v-424h401v-198h-401v-471h467v-199h-686zM184 1581l172 297h242l172 -297h-178l-115 207l-112 -207h-181z" />
<glyph unicode="&#xcb;" horiz-adv-x="833" d="M111 0v1491h673v-199h-454v-424h401v-198h-401v-471h467v-199h-686zM209 1581v203h201v-203h-201zM555 1581v203h201v-203h-201z" />
<glyph unicode="&#xcc;" horiz-adv-x="454" d="M2 1878h227l125 -297h-168zM121 0v1491h223v-1491h-223z" />
<glyph unicode="&#xcd;" horiz-adv-x="454" d="M117 1581l123 297h227l-191 -297h-159zM121 0v1491h223v-1491h-223z" />
<glyph unicode="&#xce;" horiz-adv-x="454" d="M-51 1581l172 297h241l173 -297h-179l-114 207l-113 -207h-180zM121 0v1491h223v-1491h-223z" />
<glyph unicode="&#xcf;" horiz-adv-x="454" d="M-41 1581v203h201v-203h-201zM121 0v1491h223v-1491h-223zM305 1581v203h201v-203h-201z" />
<glyph unicode="&#xd1;" horiz-adv-x="1062" d="M113 0v1491h290l349 -1063v1063h209v-1491h-287l-355 1096v-1096h-206zM309 1581q0 231 109 231q43 0 126 -39.5t101 -39.5q17 0 27.5 7t14.5 22.5t4.5 23t0.5 24.5h125v-8q3 -221 -115 -221q-31 0 -117 37t-96 37q-7 0 -13.5 -1.5t-11.5 -3.5t-9 -6.5t-6.5 -7.5 t-4.5 -9.5t-3 -9.5t-2 -10t-1.5 -9.5t-1 -9t-0.5 -7.5h-127z" />
<glyph unicode="&#xd2;" horiz-adv-x="948" d="M96 412v2v669q0 426 381 426q79 0 141.5 -19.5t102 -48t68 -72.5t41.5 -79t20.5 -83t8.5 -70.5t1 -53.5v-669q0 -32 -0.5 -50.5t-4 -57t-9.5 -64.5t-19.5 -63t-32 -62.5t-48 -53t-66.5 -44.5t-89 -28t-114 -11q-79 0 -141 18t-101.5 43.5t-67.5 67.5t-41.5 75.5t-20.5 84 t-8 76t-1 67.5zM256 1878h227l125 -297h-168zM315 386q0 -9 1.5 -31t4 -34.5t8 -33t13.5 -33t20.5 -27.5t28 -23t37.5 -14t49 -6q39 0 69 11t47 32.5t27.5 42t14.5 52t5 48t1 44.5v669q0 27 -1 43.5t-5 47.5t-14.5 51t-27.5 41t-47 32t-69 11q-33 0 -59.5 -9.5t-43.5 -23.5 t-29 -36.5t-17.5 -40.5t-8.5 -44t-3.5 -39t-0.5 -33v-669v-28z" />
<glyph unicode="&#xd3;" horiz-adv-x="948" d="M96 412v2v669q0 426 381 426q79 0 141.5 -19.5t102 -48t68 -72.5t41.5 -79t20.5 -83t8.5 -70.5t1 -53.5v-669q0 -32 -0.5 -50.5t-4 -57t-9.5 -64.5t-19.5 -63t-32 -62.5t-48 -53t-66.5 -44.5t-89 -28t-114 -11q-79 0 -141 18t-101.5 43.5t-67.5 67.5t-41.5 75.5t-20.5 84 t-8 76t-1 67.5zM315 386q0 -9 1.5 -31t4 -34.5t8 -33t13.5 -33t20.5 -27.5t28 -23t37.5 -14t49 -6q39 0 69 11t47 32.5t27.5 42t14.5 52t5 48t1 44.5v669q0 27 -1 43.5t-5 47.5t-14.5 51t-27.5 41t-47 32t-69 11q-33 0 -59.5 -9.5t-43.5 -23.5t-29 -36.5t-17.5 -40.5 t-8.5 -44t-3.5 -39t-0.5 -33v-669v-28zM395 1581l123 297h227l-190 -297h-160z" />
<glyph unicode="&#xd4;" horiz-adv-x="948" d="M96 412v2v669q0 426 381 426q79 0 141.5 -19.5t102 -48t68 -72.5t41.5 -79t20.5 -83t8.5 -70.5t1 -53.5v-669q0 -32 -0.5 -50.5t-4 -57t-9.5 -64.5t-19.5 -63t-32 -62.5t-48 -53t-66.5 -44.5t-89 -28t-114 -11q-79 0 -141 18t-101.5 43.5t-67.5 67.5t-41.5 75.5t-20.5 84 t-8 76t-1 67.5zM201 1581l172 297h241l172 -297h-178l-114 207l-113 -207h-180zM315 386q0 -9 1.5 -31t4 -34.5t8 -33t13.5 -33t20.5 -27.5t28 -23t37.5 -14t49 -6q39 0 69 11t47 32.5t27.5 42t14.5 52t5 48t1 44.5v669q0 27 -1 43.5t-5 47.5t-14.5 51t-27.5 41t-47 32 t-69 11q-33 0 -59.5 -9.5t-43.5 -23.5t-29 -36.5t-17.5 -40.5t-8.5 -44t-3.5 -39t-0.5 -33v-669v-28z" />
<glyph unicode="&#xd5;" horiz-adv-x="948" d="M96 412v2v669q0 426 381 426q79 0 141.5 -19.5t102 -48t68 -72.5t41.5 -79t20.5 -83t8.5 -70.5t1 -53.5v-669q0 -32 -0.5 -50.5t-4 -57t-9.5 -64.5t-19.5 -63t-32 -62.5t-48 -53t-66.5 -44.5t-89 -28t-114 -11q-79 0 -141 18t-101.5 43.5t-67.5 67.5t-41.5 75.5t-20.5 84 t-8 76t-1 67.5zM219 1581q0 231 109 231q43 0 126 -39.5t101 -39.5q17 0 27.5 7t14.5 22.5t4.5 23t0.5 24.5h125v-8q3 -221 -115 -221q-31 0 -117 37t-96 37q-7 0 -13.5 -1.5t-11.5 -3.5t-9 -6.5t-6.5 -7.5t-4.5 -9.5t-3 -9.5t-2 -10t-1.5 -9.5t-1 -9t-0.5 -7.5h-127z M315 386q0 -9 1.5 -31t4 -34.5t8 -33t13.5 -33t20.5 -27.5t28 -23t37.5 -14t49 -6q39 0 69 11t47 32.5t27.5 42t14.5 52t5 48t1 44.5v669q0 27 -1 43.5t-5 47.5t-14.5 51t-27.5 41t-47 32t-69 11q-33 0 -59.5 -9.5t-43.5 -23.5t-29 -36.5t-17.5 -40.5t-8.5 -44t-3.5 -39 t-0.5 -33v-669v-28z" />
<glyph unicode="&#xd6;" horiz-adv-x="948" d="M96 412v2v669q0 426 381 426q79 0 141.5 -19.5t102 -48t68 -72.5t41.5 -79t20.5 -83t8.5 -70.5t1 -53.5v-669q0 -32 -0.5 -50.5t-4 -57t-9.5 -64.5t-19.5 -63t-32 -62.5t-48 -53t-66.5 -44.5t-89 -28t-114 -11q-79 0 -141 18t-101.5 43.5t-67.5 67.5t-41.5 75.5t-20.5 84 t-8 76t-1 67.5zM197 1581v203h200v-203h-200zM315 386q0 -9 1.5 -31t4 -34.5t8 -33t13.5 -33t20.5 -27.5t28 -23t37.5 -14t49 -6q39 0 69 11t47 32.5t27.5 42t14.5 52t5 48t1 44.5v669q0 27 -1 43.5t-5 47.5t-14.5 51t-27.5 41t-47 32t-69 11q-33 0 -59.5 -9.5t-43.5 -23.5 t-29 -36.5t-17.5 -40.5t-8.5 -44t-3.5 -39t-0.5 -33v-669v-28zM543 1581v203h200v-203h-200z" />
<glyph unicode="&#xd8;" horiz-adv-x="948" d="M-4 -35l125 232q-25 119 -25 309v577q0 31 1 52t8 69.5t20 83.5t41.5 79.5t67.5 73t101.5 48.5t141.5 20q62 0 112 -10.5t87 -32t52.5 -32.5t39.5 -33l61 115h129l-124 -234q13 -37 19 -98t6.5 -104t0.5 -144v-547q0 -66 -10.5 -123t-37 -111t-68 -91.5t-107.5 -60.5 t-152 -23q-53 0 -100.5 10t-74 20t-57.5 30.5t-36.5 25.5t-23.5 22l-66 -123h-131zM317 563l316 588q0 158 -156 158q-33 0 -59 -9t-42.5 -22t-28.5 -34.5t-17.5 -39t-8.5 -44t-3.5 -40.5t-0.5 -37v-520zM322 328q8 -66 26 -95q38 -59 137 -59q33 0 59 11t42.5 26.5t28.5 42 t17.5 48t8.5 55.5t3.5 52t0.5 50v471z" />
<glyph unicode="&#xd9;" horiz-adv-x="985" d="M115 494v997h221v-997v-62.5t1.5 -55t4.5 -51t8.5 -41.5t13.5 -36.5t20.5 -27t28.5 -22t38 -11.5t49 -5t49 5t38 11.5t28.5 22t20.5 27t13.5 36.5t8.5 41.5t4.5 51t1.5 55v62.5v997h223v-997q0 -57 -1 -91t-8.5 -95t-21.5 -99.5t-42.5 -86.5t-68.5 -75.5t-102.5 -47 t-142.5 -19.5t-142.5 19.5t-102.5 47t-68 76t-42 86t-21 99.5t-8 95t-1 91zM291 1878h227l125 -297h-168z" />
<glyph unicode="&#xda;" horiz-adv-x="985" d="M115 494v997h221v-997v-62.5t1.5 -55t4.5 -51t8.5 -41.5t13.5 -36.5t20.5 -27t28.5 -22t38 -11.5t49 -5t49 5t38 11.5t28.5 22t20.5 27t13.5 36.5t8.5 41.5t4.5 51t1.5 55v62.5v997h223v-997q0 -57 -1 -91t-8.5 -95t-21.5 -99.5t-42.5 -86.5t-68.5 -75.5t-102.5 -47 t-142.5 -19.5t-142.5 19.5t-102.5 47t-68 76t-42 86t-21 99.5t-8 95t-1 91zM403 1581l123 297h228l-191 -297h-160z" />
<glyph unicode="&#xdb;" horiz-adv-x="985" d="M115 494v997h221v-997v-62.5t1.5 -55t4.5 -51t8.5 -41.5t13.5 -36.5t20.5 -27t28.5 -22t38 -11.5t49 -5t49 5t38 11.5t28.5 22t20.5 27t13.5 36.5t8.5 41.5t4.5 51t1.5 55v62.5v997h223v-997q0 -57 -1 -91t-8.5 -95t-21.5 -99.5t-42.5 -86.5t-68.5 -75.5t-102.5 -47 t-142.5 -19.5t-142.5 19.5t-102.5 47t-68 76t-42 86t-21 99.5t-8 95t-1 91zM211 1581l172 297h242l172 -297h-179l-114 207l-113 -207h-180z" />
<glyph unicode="&#xdc;" horiz-adv-x="985" d="M115 494v997h221v-997v-62.5t1.5 -55t4.5 -51t8.5 -41.5t13.5 -36.5t20.5 -27t28.5 -22t38 -11.5t49 -5t49 5t38 11.5t28.5 22t20.5 27t13.5 36.5t8.5 41.5t4.5 51t1.5 55v62.5v997h223v-997q0 -57 -1 -91t-8.5 -95t-21.5 -99.5t-42.5 -86.5t-68.5 -75.5t-102.5 -47 t-142.5 -19.5t-142.5 19.5t-102.5 47t-68 76t-42 86t-21 99.5t-8 95t-1 91zM221 1581v203h201v-203h-201zM567 1581v203h201v-203h-201z" />
<glyph unicode="&#xdf;" d="M72 0v1010q0 176 22 261q67 222 309 226q151 0 235.5 -84.5t84.5 -261.5q0 -103 -39 -160.5t-121 -89.5q89 -8 132.5 -72.5t43.5 -191.5v-307q0 -163 -76 -246.5t-208 -83.5h-111v172h64q40 0 68.5 17t40.5 44.5t17 50.5t5 46v307q0 9 -1.5 23.5t-10.5 42.5t-23.5 50.5 t-45 40t-71.5 17.5h-43v176q26 3 36.5 4.5t35 7t35.5 11.5t28.5 18.5t25.5 28.5t14.5 40t6.5 54q0 166 -120 166q-28 0 -50 -9t-36 -22t-24 -39t-15 -46.5t-7.5 -58.5t-3 -62.5t-0.5 -69.5v-1010h-198z" />
<glyph unicode="&#xe0;" d="M53 285q0 56 8 103t21.5 83t35.5 65.5t45.5 50t57.5 37.5t64 27t73 18.5t77.5 13t82.5 9.5v41q0 115 -27.5 165t-91.5 50q-40 0 -65.5 -16t-36.5 -46t-14.5 -57.5t-3.5 -66.5h-207q0 360 327 360q52 0 95 -9.5t74.5 -24.5t56.5 -39t40.5 -46.5t27 -54.5t17.5 -56.5t9 -58 t3.5 -53t0.5 -47.5v-733h-205v106q-63 -61 -113 -90.5t-120 -29.5q-51 0 -92 18.5t-66.5 48t-42.5 69.5t-24 80t-7 83zM190 1511h228l125 -297h-168zM260 319q0 -139 115 -139q19 0 40 8.5t33 16t37.5 26t32.5 23.5v274q-105 -17 -145 -34q-113 -47 -113 -175z" />
<glyph unicode="&#xe1;" d="M53 285q0 56 8 103t21.5 83t35.5 65.5t45.5 50t57.5 37.5t64 27t73 18.5t77.5 13t82.5 9.5v41q0 115 -27.5 165t-91.5 50q-40 0 -65.5 -16t-36.5 -46t-14.5 -57.5t-3.5 -66.5h-207q0 360 327 360q52 0 95 -9.5t74.5 -24.5t56.5 -39t40.5 -46.5t27 -54.5t17.5 -56.5t9 -58 t3.5 -53t0.5 -47.5v-733h-205v106q-63 -61 -113 -90.5t-120 -29.5q-51 0 -92 18.5t-66.5 48t-42.5 69.5t-24 80t-7 83zM260 319q0 -139 115 -139q19 0 40 8.5t33 16t37.5 26t32.5 23.5v274q-105 -17 -145 -34q-113 -47 -113 -175zM301 1214l123 297h227l-190 -297h-160z" />
<glyph unicode="&#xe2;" d="M53 285q0 56 8 103t21.5 83t35.5 65.5t45.5 50t57.5 37.5t64 27t73 18.5t77.5 13t82.5 9.5v41q0 115 -27.5 165t-91.5 50q-40 0 -65.5 -16t-36.5 -46t-14.5 -57.5t-3.5 -66.5h-207q0 360 327 360q52 0 95 -9.5t74.5 -24.5t56.5 -39t40.5 -46.5t27 -54.5t17.5 -56.5t9 -58 t3.5 -53t0.5 -47.5v-733h-205v106q-63 -61 -113 -90.5t-120 -29.5q-51 0 -92 18.5t-66.5 48t-42.5 69.5t-24 80t-7 83zM113 1214l172 297h241l172 -297h-178l-114 207l-113 -207h-180zM260 319q0 -139 115 -139q19 0 40 8.5t33 16t37.5 26t32.5 23.5v274q-105 -17 -145 -34 q-113 -47 -113 -175z" />
<glyph unicode="&#xe3;" d="M53 285q0 56 8 103t21.5 83t35.5 65.5t45.5 50t57.5 37.5t64 27t73 18.5t77.5 13t82.5 9.5v41q0 115 -27.5 165t-91.5 50q-40 0 -65.5 -16t-36.5 -46t-14.5 -57.5t-3.5 -66.5h-207q0 360 327 360q52 0 95 -9.5t74.5 -24.5t56.5 -39t40.5 -46.5t27 -54.5t17.5 -56.5t9 -58 t3.5 -53t0.5 -47.5v-733h-205v106q-63 -61 -113 -90.5t-120 -29.5q-51 0 -92 18.5t-66.5 48t-42.5 69.5t-24 80t-7 83zM152 1214q0 232 108 232q43 0 126 -40t101 -40q17 0 28 7.5t14.5 22.5t4.5 23.5t1 24.5h124q0 -97 -13 -142q-27 -88 -101 -88q-31 0 -117 37t-96 37 q-7 0 -13.5 -1.5t-11.5 -3.5t-9 -6.5t-6.5 -7.5t-4.5 -9.5t-3 -9.5t-2 -10t-1.5 -9.5t-1 -9t-0.5 -7.5h-127zM260 319q0 -139 115 -139q19 0 40 8.5t33 16t37.5 26t32.5 23.5v274q-105 -17 -145 -34q-113 -47 -113 -175z" />
<glyph unicode="&#xe4;" d="M53 285q0 56 8 103t21.5 83t35.5 65.5t45.5 50t57.5 37.5t64 27t73 18.5t77.5 13t82.5 9.5v41q0 115 -27.5 165t-91.5 50q-40 0 -65.5 -16t-36.5 -46t-14.5 -57.5t-3.5 -66.5h-207q0 360 327 360q52 0 95 -9.5t74.5 -24.5t56.5 -39t40.5 -46.5t27 -54.5t17.5 -56.5t9 -58 t3.5 -53t0.5 -47.5v-733h-205v106q-63 -61 -113 -90.5t-120 -29.5q-51 0 -92 18.5t-66.5 48t-42.5 69.5t-24 80t-7 83zM123 1214v203h201v-203h-201zM260 319q0 -139 115 -139q19 0 40 8.5t33 16t37.5 26t32.5 23.5v274q-105 -17 -145 -34q-113 -47 -113 -175zM469 1214v203 h201v-203h-201z" />
<glyph unicode="&#xe5;" d="M53 285q0 56 8 103t21.5 83t35.5 65.5t45.5 50t57.5 37.5t64 27t73 18.5t77.5 13t82.5 9.5v41q0 115 -27.5 165t-91.5 50q-40 0 -65.5 -16t-36.5 -46t-14.5 -57.5t-3.5 -66.5h-207q0 360 327 360q52 0 95 -9.5t74.5 -24.5t56.5 -39t40.5 -46.5t27 -54.5t17.5 -56.5t9 -58 t3.5 -53t0.5 -47.5v-733h-205v106q-63 -61 -113 -90.5t-120 -29.5q-51 0 -92 18.5t-66.5 48t-42.5 69.5t-24 80t-7 83zM207 1339q0 82 59.5 128t149.5 46t148.5 -45.5t58.5 -128.5q0 -77 -58.5 -124.5t-148.5 -47.5q-91 0 -150 47.5t-59 124.5zM260 319q0 -139 115 -139 q19 0 40 8.5t33 16t37.5 26t32.5 23.5v274q-105 -17 -145 -34q-113 -47 -113 -175zM328 1343q0 -35 26.5 -62.5t61.5 -27.5t61.5 27.5t26.5 62.5q0 33 -27 57.5t-61 24.5t-61 -24.5t-27 -57.5z" />
<glyph unicode="&#xe6;" horiz-adv-x="1251" d="M59 328q0 54 10.5 99.5t26.5 78.5t44 59.5t53 44t63.5 31t65.5 20t70 11.5t66.5 6.5t63.5 3.5q0 144 -21 204t-91 60q-36 0 -62 -14.5t-38.5 -32.5t-19.5 -47.5t-8 -47t-1 -42.5h-205q0 69 15.5 130t49 114.5t93.5 84.5t141 31q48 0 88.5 -11.5t65 -26t45.5 -38.5 t29.5 -38t19.5 -35q25 52 87.5 100.5t145.5 48.5q69 0 124 -18t89 -44t59 -65.5t37 -72t18.5 -74.5t7.5 -62t1 -45v-237h-469q0 -75 0.5 -108.5t4.5 -82.5t12 -69t22.5 -43t37.5 -30t56 -7q38 0 64 14t39 32t19.5 52.5t7.5 56.5t1 64h201q0 -30 -0.5 -47.5t-3.5 -52.5 t-8.5 -59t-17 -57.5t-27.5 -56.5t-41.5 -48.5t-57.5 -40.5t-77 -25t-99 -10q-32 0 -60.5 6t-48 13t-39.5 22.5t-30 24.5t-25 30t-18.5 27t-16.5 28q-37 -61 -60 -83q-68 -68 -193 -68q-141 0 -223.5 91.5t-82.5 250.5zM262 328q0 -68 32 -116t87 -48q143 0 143 186 q0 28 -1 87t-1 89q-29 -2 -45.5 -4t-47.5 -8t-50.5 -14t-44 -23t-38.5 -34.5t-24 -49t-10 -65.5zM723 686h268q0 33 -0.5 53t-3 50.5t-7.5 49.5t-15 41t-24 34.5t-35.5 21t-49.5 8.5t-49.5 -8.5t-35 -20.5t-23.5 -35t-14.5 -41t-7 -50t-3 -50t-0.5 -53z" />
<glyph unicode="&#xe7;" horiz-adv-x="757" d="M59 336v436q0 23 1 40.5t7 57t17.5 69t36.5 66t59 60.5t88.5 40.5t122.5 16.5q320 0 320 -350v-51h-195v51q0 174 -125 174q-131 0 -131 -174v-436q0 -22 0.5 -35t4 -37t12 -38.5t22 -30.5t37.5 -23.5t55 -7.5q34 0 59 15t37.5 34t19.5 46.5t8 43t1 33.5v74h195v-74 q0 -56 -7 -101.5t-27.5 -93.5t-55 -80.5t-93 -53.5t-137.5 -21q-80 0 -140.5 21.5t-96 55t-58 81t-30 93.5t-7.5 99zM147 -346l168 272h170l-110 -272h-228z" />
<glyph unicode="&#xe8;" d="M66 377v391q0 18 1 35t7.5 55.5t18 69.5t36.5 69t58.5 63.5t88.5 43.5t123 18q69 0 123.5 -16.5t89 -40t59 -60t36.5 -65.5t18 -69t7 -58.5t1 -44.5v-266h-467v-125q0 -27 0.5 -42t3 -41t7 -41t14 -34.5t23 -29.5t35 -17.5t48.5 -7.5q32 0 56.5 9.5t38.5 29t23 38 t12 47.5t4 45t1 44h201q0 -40 -2 -72.5t-10 -74.5t-21.5 -74.5t-39 -65.5t-60 -55t-86.5 -35.5t-117 -13.5q-68 0 -122 18t-88 44t-58.5 66t-36 72.5t-18 76.5t-7.5 64.5t-1 49.5zM178 1511h228l124 -297h-168zM266 686h266v82q0 180 -126 180q-140 0 -140 -180v-82z" />
<glyph unicode="&#xe9;" d="M66 377v391q0 18 1 35t7.5 55.5t18 69.5t36.5 69t58.5 63.5t88.5 43.5t123 18q69 0 123.5 -16.5t89 -40t59 -60t36.5 -65.5t18 -69t7 -58.5t1 -44.5v-266h-467v-125q0 -27 0.5 -42t3 -41t7 -41t14 -34.5t23 -29.5t35 -17.5t48.5 -7.5q32 0 56.5 9.5t38.5 29t23 38 t12 47.5t4 45t1 44h201q0 -40 -2 -72.5t-10 -74.5t-21.5 -74.5t-39 -65.5t-60 -55t-86.5 -35.5t-117 -13.5q-68 0 -122 18t-88 44t-58.5 66t-36 72.5t-18 76.5t-7.5 64.5t-1 49.5zM266 686h266v82q0 180 -126 180q-140 0 -140 -180v-82zM305 1214l123 297h227l-190 -297 h-160z" />
<glyph unicode="&#xea;" d="M66 377v391q0 18 1 35t7.5 55.5t18 69.5t36.5 69t58.5 63.5t88.5 43.5t123 18q69 0 123.5 -16.5t89 -40t59 -60t36.5 -65.5t18 -69t7 -58.5t1 -44.5v-266h-467v-125q0 -27 0.5 -42t3 -41t7 -41t14 -34.5t23 -29.5t35 -17.5t48.5 -7.5q32 0 56.5 9.5t38.5 29t23 38 t12 47.5t4 45t1 44h201q0 -40 -2 -72.5t-10 -74.5t-21.5 -74.5t-39 -65.5t-60 -55t-86.5 -35.5t-117 -13.5q-68 0 -122 18t-88 44t-58.5 66t-36 72.5t-18 76.5t-7.5 64.5t-1 49.5zM109 1214l172 297h241l172 -297h-178l-115 207l-112 -207h-180zM266 686h266v82 q0 180 -126 180q-140 0 -140 -180v-82z" />
<glyph unicode="&#xeb;" d="M66 377v391q0 18 1 35t7.5 55.5t18 69.5t36.5 69t58.5 63.5t88.5 43.5t123 18q69 0 123.5 -16.5t89 -40t59 -60t36.5 -65.5t18 -69t7 -58.5t1 -44.5v-266h-467v-125q0 -27 0.5 -42t3 -41t7 -41t14 -34.5t23 -29.5t35 -17.5t48.5 -7.5q32 0 56.5 9.5t38.5 29t23 38 t12 47.5t4 45t1 44h201q0 -40 -2 -72.5t-10 -74.5t-21.5 -74.5t-39 -65.5t-60 -55t-86.5 -35.5t-117 -13.5q-68 0 -122 18t-88 44t-58.5 66t-36 72.5t-18 76.5t-7.5 64.5t-1 49.5zM131 1214v203h201v-203h-201zM266 686h266v82q0 180 -126 180q-140 0 -140 -180v-82z M477 1214v203h201v-203h-201z" />
<glyph unicode="&#xec;" horiz-adv-x="454" d="M6 1511h227l125 -297h-168zM129 0v1108h201v-1108h-201z" />
<glyph unicode="&#xed;" horiz-adv-x="454" d="M117 1214l123 297h227l-191 -297h-159zM129 0v1108h201v-1108h-201z" />
<glyph unicode="&#xee;" horiz-adv-x="454" d="M-68 1214l172 297h242l172 -297h-178l-115 207l-112 -207h-181zM129 0v1108h201v-1108h-201z" />
<glyph unicode="&#xef;" horiz-adv-x="454" d="M-49 1214v203h201v-203h-201zM129 0v1108h201v-1108h-201zM297 1214v203h201v-203h-201z" />
<glyph unicode="&#xf1;" d="M70 0v1108h196v-109q4 3 25 20.5t31 24.5t31.5 22t39 22.5t41.5 16.5t50.5 13t54.5 4q56 0 93.5 -20t57 -45.5t29 -85t11 -101t1.5 -129.5v-4v-737h-203v737q0 42 -0.5 61t-3 47.5t-8.5 41t-16 26.5t-26.5 18.5t-39.5 4.5q-36 0 -71 -17.5t-49 -30t-40 -38.5v-850h-204z M154 1214q0 232 108 232q43 0 126 -40t101 -40q17 0 28 7.5t14.5 22.5t4.5 23.5t1 24.5h125v-8q3 -222 -115 -222q-31 0 -117 37t-96 37q-7 0 -13.5 -1.5t-11.5 -3.5t-9 -6.5t-6.5 -7.5t-4.5 -9.5t-3 -9.5t-2 -10t-1.5 -9.5t-1 -9t-0.5 -7.5h-127z" />
<glyph unicode="&#xf2;" d="M61 391v334q0 25 0.5 41.5t3.5 50.5t8.5 58t17 58.5t27.5 59t42 51t58 43t77.5 27t99.5 10.5t99.5 -10.5t77.5 -27t58 -43t42 -51t27.5 -59t17 -58.5t8.5 -58t3.5 -50.5t0.5 -41.5v-334q0 -31 -0.5 -49t-3.5 -54.5t-8.5 -60.5t-17 -58.5t-27.5 -57.5t-42 -48.5t-58 -41 t-77.5 -25.5t-99.5 -10t-99.5 10t-77.5 25.5t-58 41t-42 48.5t-27.5 57.5t-17 58.5t-8.5 60.5t-3.5 54.5t-0.5 49zM133 1511h227l125 -297h-168zM260 391q0 -31 1 -48.5t4 -49t12 -51t23 -40t38.5 -30.5t56.5 -10q28 0 50 8t35.5 19t23.5 32.5t14.5 36.5t7 44.5t2.5 43.5v45 v334v41t-2.5 41t-7 43t-14.5 36t-23.5 32t-35.5 19.5t-50 8.5q-32 0 -56.5 -9.5t-38.5 -29t-23 -38t-12 -49t-4 -47.5t-1 -48v-334z" />
<glyph unicode="&#xf3;" d="M61 391v334q0 25 0.5 41.5t3.5 50.5t8.5 58t17 58.5t27.5 59t42 51t58 43t77.5 27t99.5 10.5t99.5 -10.5t77.5 -27t58 -43t42 -51t27.5 -59t17 -58.5t8.5 -58t3.5 -50.5t0.5 -41.5v-334q0 -31 -0.5 -49t-3.5 -54.5t-8.5 -60.5t-17 -58.5t-27.5 -57.5t-42 -48.5t-58 -41 t-77.5 -25.5t-99.5 -10t-99.5 10t-77.5 25.5t-58 41t-42 48.5t-27.5 57.5t-17 58.5t-8.5 60.5t-3.5 54.5t-0.5 49zM260 391q0 -31 1 -48.5t4 -49t12 -51t23 -40t38.5 -30.5t56.5 -10q28 0 50 8t35.5 19t23.5 32.5t14.5 36.5t7 44.5t2.5 43.5v45v334v41t-2.5 41t-7 43 t-14.5 36t-23.5 32t-35.5 19.5t-50 8.5q-32 0 -56.5 -9.5t-38.5 -29t-23 -38t-12 -49t-4 -47.5t-1 -48v-334zM322 1214l122 297h228l-191 -297h-159z" />
<glyph unicode="&#xf4;" d="M61 391v334q0 25 0.5 41.5t3.5 50.5t8.5 58t17 58.5t27.5 59t42 51t58 43t77.5 27t99.5 10.5t99.5 -10.5t77.5 -27t58 -43t42 -51t27.5 -59t17 -58.5t8.5 -58t3.5 -50.5t0.5 -41.5v-334q0 -31 -0.5 -49t-3.5 -54.5t-8.5 -60.5t-17 -58.5t-27.5 -57.5t-42 -48.5t-58 -41 t-77.5 -25.5t-99.5 -10t-99.5 10t-77.5 25.5t-58 41t-42 48.5t-27.5 57.5t-17 58.5t-8.5 60.5t-3.5 54.5t-0.5 49zM96 1214l172 297h242l172 -297h-178l-115 207l-113 -207h-180zM260 391q0 -31 1 -48.5t4 -49t12 -51t23 -40t38.5 -30.5t56.5 -10q28 0 50 8t35.5 19 t23.5 32.5t14.5 36.5t7 44.5t2.5 43.5v45v334v41t-2.5 41t-7 43t-14.5 36t-23.5 32t-35.5 19.5t-50 8.5q-32 0 -56.5 -9.5t-38.5 -29t-23 -38t-12 -49t-4 -47.5t-1 -48v-334z" />
<glyph unicode="&#xf5;" d="M61 391v334q0 25 0.5 41.5t3.5 50.5t8.5 58t17 58.5t27.5 59t42 51t58 43t77.5 27t99.5 10.5t99.5 -10.5t77.5 -27t58 -43t42 -51t27.5 -59t17 -58.5t8.5 -58t3.5 -50.5t0.5 -41.5v-334q0 -31 -0.5 -49t-3.5 -54.5t-8.5 -60.5t-17 -58.5t-27.5 -57.5t-42 -48.5t-58 -41 t-77.5 -25.5t-99.5 -10t-99.5 10t-77.5 25.5t-58 41t-42 48.5t-27.5 57.5t-17 58.5t-8.5 60.5t-3.5 54.5t-0.5 49zM131 1214q0 232 109 232q43 0 126 -40t101 -40q17 0 27.5 7.5t14.5 22.5t4.5 23t0.5 25h125v-8q3 -222 -115 -222q-31 0 -117 37t-96 37q-7 0 -13.5 -1.5 t-11.5 -3.5t-9 -6.5t-6.5 -7.5t-4.5 -9.5t-3 -9.5t-2 -10t-1.5 -9.5t-1 -9t-0.5 -7.5h-127zM260 391q0 -31 1 -48.5t4 -49t12 -51t23 -40t38.5 -30.5t56.5 -10q28 0 50 8t35.5 19t23.5 32.5t14.5 36.5t7 44.5t2.5 43.5v45v334v41t-2.5 41t-7 43t-14.5 36t-23.5 32 t-35.5 19.5t-50 8.5q-32 0 -56.5 -9.5t-38.5 -29t-23 -38t-12 -49t-4 -47.5t-1 -48v-334z" />
<glyph unicode="&#xf6;" d="M61 391v334q0 25 0.5 41.5t3.5 50.5t8.5 58t17 58.5t27.5 59t42 51t58 43t77.5 27t99.5 10.5t99.5 -10.5t77.5 -27t58 -43t42 -51t27.5 -59t17 -58.5t8.5 -58t3.5 -50.5t0.5 -41.5v-334q0 -31 -0.5 -49t-3.5 -54.5t-8.5 -60.5t-17 -58.5t-27.5 -57.5t-42 -48.5t-58 -41 t-77.5 -25.5t-99.5 -10t-99.5 10t-77.5 25.5t-58 41t-42 48.5t-27.5 57.5t-17 58.5t-8.5 60.5t-3.5 54.5t-0.5 49zM115 1214v203h200v-203h-200zM260 391q0 -31 1 -48.5t4 -49t12 -51t23 -40t38.5 -30.5t56.5 -10q28 0 50 8t35.5 19t23.5 32.5t14.5 36.5t7 44.5t2.5 43.5v45 v334v41t-2.5 41t-7 43t-14.5 36t-23.5 32t-35.5 19.5t-50 8.5q-32 0 -56.5 -9.5t-38.5 -29t-23 -38t-12 -49t-4 -47.5t-1 -48v-334zM461 1214v203h201v-203h-201z" />
<glyph unicode="&#xf7;" horiz-adv-x="1517" d="M311 537v147h893v-147h-893zM637 340q0 50 35.5 85.5t85.5 35.5t85.5 -35.5t35.5 -85.5t-35.5 -85.5t-85.5 -35.5t-85.5 35.5t-35.5 85.5zM637 881q0 49 35.5 84.5t85.5 35.5t85.5 -35.5t35.5 -84.5t-35.5 -85t-85.5 -36t-85.5 36t-35.5 85z" />
<glyph unicode="&#xf8;" d="M-16 -31l108 178q-1 7 -6.5 31t-7 33t-5.5 32t-5 41t-3.5 47t-3 62.5t-0.5 75.5v297q0 37 5 74.5t25.5 91.5t54 93.5t98 68t151.5 28.5q117 0 233 -77q5 -4 7 -5l49 82h125l-104 -174q11 -47 14 -65t6.5 -71t3.5 -142v-285q0 -28 -0.5 -45.5t-3.5 -52.5t-8.5 -59t-17 -58 t-27.5 -57.5t-42 -49t-58 -41t-77.5 -26t-99.5 -10.5q-26 0 -47 1.5t-41 6.5t-31.5 7.5t-30.5 12l-25 12.5t-28 16.5t-28 16.5l-55 -90h-125zM260 424l258 424q0 30 -30 64t-93 34q-135 0 -135 -180v-342zM281 252q7 -16 10 -23.5t14 -24t23.5 -24.5t34.5 -15t49 -7 q34 0 58 13t37.5 32t20.5 51.5t9 60.5t2 70v289z" />
<glyph unicode="&#xf9;" d="M66 323v60v725h204v-725q0 -36 0.5 -55.5t3.5 -49t9.5 -45.5t17 -33t28.5 -24.5t42 -7.5q39 0 84.5 30.5t68.5 59.5v850h203v-1108h-203v109l-9 -7q-9 -7 -14.5 -12t-19 -14.5t-24 -16.5t-27 -17t-31.5 -17.5t-33.5 -15t-36 -12.5t-37 -8t-38.5 -3q-31 0 -56 8.5 t-43.5 21t-33 35.5t-23.5 42.5t-15.5 53t-9.5 56t-5 61t-2 59.5zM188 1511h228l125 -297h-168z" />
<glyph unicode="&#xfa;" d="M66 323v60v725h204v-725q0 -36 0.5 -55.5t3.5 -49t9.5 -45.5t17 -33t28.5 -24.5t42 -7.5q39 0 84.5 30.5t68.5 59.5v850h203v-1108h-203v109l-9 -7q-9 -7 -14.5 -12t-19 -14.5t-24 -16.5t-27 -17t-31.5 -17.5t-33.5 -15t-36 -12.5t-37 -8t-38.5 -3q-31 0 -56 8.5 t-43.5 21t-33 35.5t-23.5 42.5t-15.5 53t-9.5 56t-5 61t-2 59.5zM311 1214l123 297h228l-191 -297h-160z" />
<glyph unicode="&#xfb;" d="M66 323v60v725h204v-725q0 -36 0.5 -55.5t3.5 -49t9.5 -45.5t17 -33t28.5 -24.5t42 -7.5q39 0 84.5 30.5t68.5 59.5v850h203v-1108h-203v109l-9 -7q-9 -7 -14.5 -12t-19 -14.5t-24 -16.5t-27 -17t-31.5 -17.5t-33.5 -15t-36 -12.5t-37 -8t-38.5 -3q-31 0 -56 8.5 t-43.5 21t-33 35.5t-23.5 42.5t-15.5 53t-9.5 56t-5 61t-2 59.5zM104 1214l172 297h242l172 -297h-178l-115 207l-112 -207h-181z" />
<glyph unicode="&#xfc;" d="M66 323v60v725h204v-725q0 -36 0.5 -55.5t3.5 -49t9.5 -45.5t17 -33t28.5 -24.5t42 -7.5q39 0 84.5 30.5t68.5 59.5v850h203v-1108h-203v109l-9 -7q-9 -7 -14.5 -12t-19 -14.5t-24 -16.5t-27 -17t-31.5 -17.5t-33.5 -15t-36 -12.5t-37 -8t-38.5 -3q-31 0 -56 8.5 t-43.5 21t-33 35.5t-23.5 42.5t-15.5 53t-9.5 56t-5 61t-2 59.5zM131 1214v203h201v-203h-201zM477 1214v203h201v-203h-201z" />
<glyph unicode="&#xff;" d="M14 1108h205l189 -791l174 791h198l-219 -879q-67 -266 -89 -331q-50 -147 -123 -199q-62 -45 -167 -45q-57 0 -116 6v174q36 -4 61 -4q24 0 48.5 5.5t52 19t44.5 41.5t17 67q0 10 -0.5 20t-2.5 23.5t-3.5 23.5t-5.5 28t-6 27.5t-7.5 32.5t-8 33t-9.5 38.5t-10 39.5z M123 1214v203h201v-203h-201zM469 1214v203h201v-203h-201z" />
<glyph unicode="&#x152;" horiz-adv-x="1290" d="M84 477v2v572q0 91 18.5 162.5t44.5 117t70.5 78t79.5 48t89.5 24t82.5 9.5t76 1h661v-199h-372v-424h344v-198h-344v-471h415v-199h-415q-17 0 -133 -10t-156 -10q-95 0 -170.5 19t-123 46t-81.5 74t-50 84t-25 96.5t-10 91t-1 86.5zM301 479q0 -30 0.5 -45.5t2.5 -44.5 t6 -46t12.5 -41.5t20.5 -39t30.5 -31.5t42.5 -26t56.5 -15t72.5 -6h80v1108h-80q-136 0 -190 -57.5t-54 -183.5v-572z" />
<glyph unicode="&#x153;" horiz-adv-x="1251" d="M63 375v379q0 22 1 39.5t7 58.5t18 72.5t36.5 70.5t59 65t89.5 44t123 18q83 0 147.5 -45.5t78.5 -107.5q26 60 100.5 106.5t144.5 46.5q48 0 92 -11t87 -39.5t74 -71t50 -111t19 -154.5v-235h-467q0 -76 0.5 -109.5t4.5 -82t12.5 -67t24 -40.5t39 -28.5t58.5 -6.5 q31 0 53.5 8.5t36 27.5t21.5 36t11.5 47.5t4 48.5t0.5 51h201q0 -39 -2 -71t-9.5 -75t-20.5 -76.5t-36.5 -67.5t-55.5 -57t-80.5 -37.5t-108.5 -14.5q-144 0 -222 100q-10 12 -37 53q-23 -57 -81.5 -105t-139.5 -48q-69 0 -123.5 17.5t-89 42.5t-59 64.5t-36.5 71t-18 76 t-7 65.5t-1 52zM266 375q0 -31 0.5 -47.5t4 -44.5t12 -44t22 -33.5t37 -25.5t55.5 -8t56 8t38 25.5t22.5 33.5t12 44t4 44.5t0.5 47.5v379q0 186 -133 186q-131 0 -131 -186v-379zM723 684h266q0 34 -0.5 50.5t-1.5 46t-5 44.5t-10 37t-15.5 33.5t-23.5 23t-33.5 16.5 t-43.5 5q-32 0 -56 -9t-38 -30t-22.5 -39.5t-12 -54.5t-4 -58t-0.5 -65z" />
<glyph unicode="&#x178;" horiz-adv-x="948" d="M27 1491h233l223 -584l224 584h231l-340 -866v-625h-229v625zM205 1581v203h201v-203h-201zM551 1581v203h201v-203h-201z" />
<glyph unicode="&#x2c6;" horiz-adv-x="522" d="M-68 1214l172 297h242l172 -297h-178l-115 207l-112 -207h-181z" />
<glyph unicode="&#x2dc;" horiz-adv-x="475" d="M-37 1214q0 232 109 232q43 0 126 -40t101 -40q17 0 27.5 7.5t14.5 22.5t4.5 23t0.5 25h125v-8q3 -222 -115 -222q-31 0 -117 37t-96 37q-7 0 -13.5 -1.5t-11.5 -3.5t-9 -6.5t-6.5 -7.5t-4.5 -9.5t-3 -9.5t-2 -10t-1.5 -9.5t-1 -9t-0.5 -7.5h-127z" />
<glyph unicode="&#x2000;" horiz-adv-x="963" />
<glyph unicode="&#x2001;" horiz-adv-x="1927" />
<glyph unicode="&#x2002;" horiz-adv-x="963" />
<glyph unicode="&#x2003;" horiz-adv-x="1927" />
<glyph unicode="&#x2004;" horiz-adv-x="642" />
<glyph unicode="&#x2005;" horiz-adv-x="481" />
<glyph unicode="&#x2006;" horiz-adv-x="321" />
<glyph unicode="&#x2007;" horiz-adv-x="321" />
<glyph unicode="&#x2008;" horiz-adv-x="240" />
<glyph unicode="&#x2009;" horiz-adv-x="385" />
<glyph unicode="&#x200a;" horiz-adv-x="107" />
<glyph unicode="&#x2010;" horiz-adv-x="454" d="M37 508v182h375v-182h-375z" />
<glyph unicode="&#x2011;" horiz-adv-x="454" d="M37 508v182h375v-182h-375z" />
<glyph unicode="&#x2012;" horiz-adv-x="454" d="M37 508v182h375v-182h-375z" />
<glyph unicode="&#x2013;" horiz-adv-x="909" d="M84 526v146h745v-146h-745z" />
<glyph unicode="&#x2014;" horiz-adv-x="1517" d="M203 524v150h1112v-150h-1112z" />
<glyph unicode="&#x2018;" horiz-adv-x="417" d="M100 975v242l123 274h113l-86 -272h92v-244h-242z" />
<glyph unicode="&#x2019;" horiz-adv-x="417" d="M100 1245v246h242v-242l-123 -274h-110l84 270h-93z" />
<glyph unicode="&#x201a;" horiz-adv-x="417" d="M82 0v246h242v-244l-123 -274h-113l86 272h-92z" />
<glyph unicode="&#x201c;" horiz-adv-x="720" d="M82 975v242l123 274h110l-84 -272h93v-244h-242zM406 975v242l122 274h113l-86 -272h92v-244h-241z" />
<glyph unicode="&#x201d;" horiz-adv-x="720" d="M82 1245v246h242v-242l-123 -274h-113l86 270h-92zM406 1245v246h241v-242l-123 -274h-110l84 270h-92z" />
<glyph unicode="&#x201e;" horiz-adv-x="720" d="M82 0v246h242v-244l-123 -274h-113l86 272h-92zM406 0v246h241v-244l-123 -274h-110l84 272h-92z" />
<glyph unicode="&#x2022;" horiz-adv-x="909" d="M84 748q3 152 113.5 258t263.5 106q156 0 261 -110.5t105 -268.5q0 -76 -30 -145.5t-79.5 -119t-118 -77.5t-142.5 -26q-156 6 -266 117.5t-107 265.5z" />
<glyph unicode="&#x2026;" horiz-adv-x="1517" d="M156 0v209h204v-209h-204zM657 0v209h205v-209h-205zM1159 0v209h205v-209h-205z" />
<glyph unicode="&#x202f;" horiz-adv-x="385" />
<glyph unicode="&#x2039;" horiz-adv-x="417" d="M59 612l146 406h149l-121 -406l123 -413h-157z" />
<glyph unicode="&#x203a;" horiz-adv-x="417" d="M76 1018h157l138 -414l-144 -405h-149l119 405z" />
<glyph unicode="&#x205f;" horiz-adv-x="481" />
<glyph unicode="&#x2122;" horiz-adv-x="1249" d="M135 1413v78h389v-78h-151v-522h-84v522h-154zM588 891v600h170l100 -510h14l86 510h164v-598h-75v547h-25l-109 -547h-104l-113 543h-28v-545h-80z" />
<glyph unicode="&#xe000;" horiz-adv-x="1105" d="M0 0v1106h1106v-1106h-1106z" />
<glyph unicode="&#xfb01;" horiz-adv-x="976" d="M18 926v182h160v72q0 34 0.5 52t3 50t7 49.5t14 43.5t23.5 41t35.5 32.5t49 26.5t65 15.5t83.5 6.5q34 0 108 -4v-180q-36 4 -57 4q-44 0 -70 -8t-38 -28t-15.5 -41.5t-3.5 -59.5v-72h174v-182h-174v-926h-205v926h-160zM707 0v1108h202v-1108h-202zM707 1274v217h202 v-217h-202z" />
<glyph unicode="&#xfb02;" horiz-adv-x="956" d="M18 926v182h160v72q0 34 0.5 52t3 50t7 49.5t14 43.5t23.5 41t35.5 32.5t49 26.5t65 15.5t83.5 6.5q34 0 108 -4v-180q-36 4 -57 4q-44 0 -70 -8t-38 -28t-15.5 -41.5t-3.5 -59.5v-72h174v-182h-174v-926h-205v926h-160zM688 0v1497h203v-1497h-203z" />
</font>
</defs>
</svg>
